<mxfile host="app.diagrams.net" agent="Mozilla/5.0 (Windows NT 10.0; Win64; x64) AppleWebKit/537.36 (KHTML, like Gecko) Chrome/127.0.0.0 Safari/537.36" version="25.0.1">
  <diagram name="Page-1" id="5x3QlWRq-N3S-oAhGKyv">
    <mxGraphModel dx="2524" dy="1846" grid="1" gridSize="10" guides="1" tooltips="1" connect="1" arrows="1" fold="1" page="1" pageScale="1" pageWidth="850" pageHeight="1100" math="0" shadow="0">
      <root>
        <mxCell id="0" />
        <mxCell id="1" parent="0" />
        <mxCell id="BXiqwRlGKzKQuI-ZINDh-2" value="" style="shape=mxgraph.cisco.computers_and_peripherals.pc;sketch=0;html=1;pointerEvents=1;dashed=0;fillColor=#036897;strokeColor=#ffffff;strokeWidth=2;verticalLabelPosition=bottom;verticalAlign=top;align=center;outlineConnect=0;" parent="1" vertex="1">
          <mxGeometry x="120" y="405" width="78" height="70" as="geometry" />
        </mxCell>
        <mxCell id="BXiqwRlGKzKQuI-ZINDh-9" value="" style="shape=mxgraph.cisco.computers_and_peripherals.pc;sketch=0;html=1;pointerEvents=1;dashed=0;fillColor=#036897;strokeColor=#ffffff;strokeWidth=2;verticalLabelPosition=bottom;verticalAlign=top;align=center;outlineConnect=0;" parent="1" vertex="1">
          <mxGeometry x="-9" y="410" width="78" height="70" as="geometry" />
        </mxCell>
        <mxCell id="BXiqwRlGKzKQuI-ZINDh-10" value="" style="shape=mxgraph.cisco.computers_and_peripherals.pc;sketch=0;html=1;pointerEvents=1;dashed=0;fillColor=#036897;strokeColor=#ffffff;strokeWidth=2;verticalLabelPosition=bottom;verticalAlign=top;align=center;outlineConnect=0;" parent="1" vertex="1">
          <mxGeometry x="-270" y="410" width="78" height="70" as="geometry" />
        </mxCell>
        <mxCell id="BXiqwRlGKzKQuI-ZINDh-11" value="" style="shape=mxgraph.cisco.computers_and_peripherals.pc;sketch=0;html=1;pointerEvents=1;dashed=0;fillColor=#036897;strokeColor=#ffffff;strokeWidth=2;verticalLabelPosition=bottom;verticalAlign=top;align=center;outlineConnect=0;" parent="1" vertex="1">
          <mxGeometry x="-410" y="410" width="78" height="70" as="geometry" />
        </mxCell>
        <mxCell id="BXiqwRlGKzKQuI-ZINDh-12" value="" style="shape=mxgraph.cisco.computers_and_peripherals.pc;sketch=0;html=1;pointerEvents=1;dashed=0;fillColor=#036897;strokeColor=#ffffff;strokeWidth=2;verticalLabelPosition=bottom;verticalAlign=top;align=center;outlineConnect=0;" parent="1" vertex="1">
          <mxGeometry x="-550" y="410" width="78" height="70" as="geometry" />
        </mxCell>
        <mxCell id="g66wI6sif0jjf1UmDSFJ-20" style="edgeStyle=orthogonalEdgeStyle;rounded=0;orthogonalLoop=1;jettySize=auto;html=1;" parent="1" source="BXiqwRlGKzKQuI-ZINDh-14" target="BXiqwRlGKzKQuI-ZINDh-29" edge="1">
          <mxGeometry relative="1" as="geometry">
            <Array as="points">
              <mxPoint x="-530" y="130" />
            </Array>
          </mxGeometry>
        </mxCell>
        <mxCell id="BXiqwRlGKzKQuI-ZINDh-14" value="" style="shape=mxgraph.cisco.switches.workgroup_switch;sketch=0;html=1;pointerEvents=1;dashed=0;fillColor=#036897;strokeColor=#ffffff;strokeWidth=2;verticalLabelPosition=bottom;verticalAlign=top;align=center;outlineConnect=0;" parent="1" vertex="1">
          <mxGeometry x="-561" y="310" width="101" height="50" as="geometry" />
        </mxCell>
        <mxCell id="g66wI6sif0jjf1UmDSFJ-31" style="edgeStyle=orthogonalEdgeStyle;rounded=0;orthogonalLoop=1;jettySize=auto;html=1;" parent="1" source="BXiqwRlGKzKQuI-ZINDh-15" target="BXiqwRlGKzKQuI-ZINDh-29" edge="1">
          <mxGeometry relative="1" as="geometry">
            <Array as="points">
              <mxPoint x="-390" y="160" />
              <mxPoint x="-260" y="160" />
            </Array>
          </mxGeometry>
        </mxCell>
        <mxCell id="BXiqwRlGKzKQuI-ZINDh-15" value="" style="shape=mxgraph.cisco.switches.workgroup_switch;sketch=0;html=1;pointerEvents=1;dashed=0;fillColor=#036897;strokeColor=#ffffff;strokeWidth=2;verticalLabelPosition=bottom;verticalAlign=top;align=center;outlineConnect=0;" parent="1" vertex="1">
          <mxGeometry x="-421" y="310" width="101" height="50" as="geometry" />
        </mxCell>
        <mxCell id="g66wI6sif0jjf1UmDSFJ-22" style="edgeStyle=orthogonalEdgeStyle;rounded=0;orthogonalLoop=1;jettySize=auto;html=1;" parent="1" source="BXiqwRlGKzKQuI-ZINDh-16" target="BXiqwRlGKzKQuI-ZINDh-29" edge="1">
          <mxGeometry relative="1" as="geometry" />
        </mxCell>
        <mxCell id="BXiqwRlGKzKQuI-ZINDh-16" value="" style="shape=mxgraph.cisco.switches.workgroup_switch;sketch=0;html=1;pointerEvents=1;dashed=0;fillColor=#036897;strokeColor=#ffffff;strokeWidth=2;verticalLabelPosition=bottom;verticalAlign=top;align=center;outlineConnect=0;" parent="1" vertex="1">
          <mxGeometry x="-281" y="300" width="101" height="50" as="geometry" />
        </mxCell>
        <mxCell id="g66wI6sif0jjf1UmDSFJ-25" style="edgeStyle=orthogonalEdgeStyle;rounded=0;orthogonalLoop=1;jettySize=auto;html=1;" parent="1" source="BXiqwRlGKzKQuI-ZINDh-17" target="BXiqwRlGKzKQuI-ZINDh-29" edge="1">
          <mxGeometry relative="1" as="geometry">
            <Array as="points">
              <mxPoint x="160" y="100" />
            </Array>
          </mxGeometry>
        </mxCell>
        <mxCell id="BXiqwRlGKzKQuI-ZINDh-17" value="" style="shape=mxgraph.cisco.switches.workgroup_switch;sketch=0;html=1;pointerEvents=1;dashed=0;fillColor=#036897;strokeColor=#ffffff;strokeWidth=2;verticalLabelPosition=bottom;verticalAlign=top;align=center;outlineConnect=0;" parent="1" vertex="1">
          <mxGeometry x="108.5" y="295" width="101" height="50" as="geometry" />
        </mxCell>
        <mxCell id="BXiqwRlGKzKQuI-ZINDh-18" value="Business Consultants&lt;div&gt;Floor 4&amp;nbsp;&lt;/div&gt;&lt;div&gt;(34)&lt;/div&gt;" style="text;html=1;align=center;verticalAlign=middle;whiteSpace=wrap;rounded=0;" parent="1" vertex="1">
          <mxGeometry x="-570" y="490" width="118" height="40" as="geometry" />
        </mxCell>
        <mxCell id="BXiqwRlGKzKQuI-ZINDh-19" value="Client Management (31)" style="text;html=1;align=center;verticalAlign=middle;whiteSpace=wrap;rounded=0;" parent="1" vertex="1">
          <mxGeometry x="-421" y="500" width="91" height="40" as="geometry" />
        </mxCell>
        <mxCell id="BXiqwRlGKzKQuI-ZINDh-20" value="Sales&amp;amp;Marketing&lt;div&gt;Floor 1&lt;/div&gt;&lt;div&gt;&amp;nbsp;(16)&lt;/div&gt;" style="text;html=1;align=center;verticalAlign=middle;whiteSpace=wrap;rounded=0;" parent="1" vertex="1">
          <mxGeometry x="-281" y="500" width="91" height="50" as="geometry" />
        </mxCell>
        <mxCell id="BXiqwRlGKzKQuI-ZINDh-21" value="Communications (22)" style="text;html=1;align=center;verticalAlign=middle;whiteSpace=wrap;rounded=0;" parent="1" vertex="1">
          <mxGeometry x="-15.5" y="500" width="91" height="40" as="geometry" />
        </mxCell>
        <mxCell id="BXiqwRlGKzKQuI-ZINDh-22" value="Security (16)" style="text;html=1;align=center;verticalAlign=middle;whiteSpace=wrap;rounded=0;" parent="1" vertex="1">
          <mxGeometry x="113.5" y="495" width="91" height="40" as="geometry" />
        </mxCell>
        <mxCell id="BXiqwRlGKzKQuI-ZINDh-23" value="" style="shape=mxgraph.cisco.switches.workgroup_switch;sketch=0;html=1;pointerEvents=1;dashed=0;fillColor=#036897;strokeColor=#ffffff;strokeWidth=2;verticalLabelPosition=bottom;verticalAlign=top;align=center;outlineConnect=0;" parent="1" vertex="1">
          <mxGeometry x="-20.5" y="300" width="101" height="50" as="geometry" />
        </mxCell>
        <mxCell id="BXiqwRlGKzKQuI-ZINDh-24" value="" style="endArrow=none;html=1;rounded=0;exitX=0.5;exitY=0;exitDx=0;exitDy=0;exitPerimeter=0;entryX=0.5;entryY=0.98;entryDx=0;entryDy=0;entryPerimeter=0;" parent="1" source="BXiqwRlGKzKQuI-ZINDh-12" target="BXiqwRlGKzKQuI-ZINDh-14" edge="1">
          <mxGeometry width="50" height="50" relative="1" as="geometry">
            <mxPoint x="-380" y="380" as="sourcePoint" />
            <mxPoint x="-330" y="330" as="targetPoint" />
          </mxGeometry>
        </mxCell>
        <mxCell id="BXiqwRlGKzKQuI-ZINDh-25" value="" style="endArrow=none;html=1;rounded=0;" parent="1" source="BXiqwRlGKzKQuI-ZINDh-11" target="BXiqwRlGKzKQuI-ZINDh-15" edge="1">
          <mxGeometry width="50" height="50" relative="1" as="geometry">
            <mxPoint x="-420" y="410" as="sourcePoint" />
            <mxPoint x="-370" y="360" as="targetPoint" />
          </mxGeometry>
        </mxCell>
        <mxCell id="BXiqwRlGKzKQuI-ZINDh-26" value="" style="endArrow=none;html=1;rounded=0;entryX=0.5;entryY=0.98;entryDx=0;entryDy=0;entryPerimeter=0;" parent="1" source="BXiqwRlGKzKQuI-ZINDh-10" target="BXiqwRlGKzKQuI-ZINDh-16" edge="1">
          <mxGeometry width="50" height="50" relative="1" as="geometry">
            <mxPoint x="-270" y="400" as="sourcePoint" />
            <mxPoint x="-220" y="350" as="targetPoint" />
          </mxGeometry>
        </mxCell>
        <mxCell id="BXiqwRlGKzKQuI-ZINDh-27" value="" style="endArrow=none;html=1;rounded=0;" parent="1" source="BXiqwRlGKzKQuI-ZINDh-9" target="BXiqwRlGKzKQuI-ZINDh-23" edge="1">
          <mxGeometry width="50" height="50" relative="1" as="geometry">
            <mxPoint x="90" y="380" as="sourcePoint" />
            <mxPoint x="90" y="350" as="targetPoint" />
          </mxGeometry>
        </mxCell>
        <mxCell id="BXiqwRlGKzKQuI-ZINDh-28" value="" style="endArrow=none;html=1;rounded=0;" parent="1" source="BXiqwRlGKzKQuI-ZINDh-2" target="BXiqwRlGKzKQuI-ZINDh-17" edge="1">
          <mxGeometry width="50" height="50" relative="1" as="geometry">
            <mxPoint x="110" y="405" as="sourcePoint" />
            <mxPoint x="160" y="355" as="targetPoint" />
          </mxGeometry>
        </mxCell>
        <mxCell id="BXiqwRlGKzKQuI-ZINDh-29" value="" style="shape=mxgraph.cisco.switches.workgroup_switch;sketch=0;html=1;pointerEvents=1;dashed=0;fillColor=#036897;strokeColor=#ffffff;strokeWidth=2;verticalLabelPosition=bottom;verticalAlign=top;align=center;outlineConnect=0;" parent="1" vertex="1">
          <mxGeometry x="-281.5" y="90" width="101" height="50" as="geometry" />
        </mxCell>
        <mxCell id="BXiqwRlGKzKQuI-ZINDh-36" value="5718" style="text;html=1;align=center;verticalAlign=middle;whiteSpace=wrap;rounded=0;" parent="1" vertex="1">
          <mxGeometry x="-607.5" y="430" width="60" height="30" as="geometry" />
        </mxCell>
        <mxCell id="BXiqwRlGKzKQuI-ZINDh-37" value="2716" style="text;html=1;align=center;verticalAlign=middle;whiteSpace=wrap;rounded=0;" parent="1" vertex="1">
          <mxGeometry x="-400.5" y="260" width="60" height="30" as="geometry" />
        </mxCell>
        <mxCell id="BXiqwRlGKzKQuI-ZINDh-38" value="1901" style="text;html=1;align=center;verticalAlign=middle;whiteSpace=wrap;rounded=0;" parent="1" vertex="1">
          <mxGeometry x="-200.5" y="430" width="60" height="30" as="geometry" />
        </mxCell>
        <mxCell id="BXiqwRlGKzKQuI-ZINDh-39" value="1611" style="text;html=1;align=center;verticalAlign=middle;whiteSpace=wrap;rounded=0;" parent="1" vertex="1">
          <mxGeometry x="20.5" y="215" width="60" height="30" as="geometry" />
        </mxCell>
        <mxCell id="BXiqwRlGKzKQuI-ZINDh-40" value="1215" style="text;html=1;align=center;verticalAlign=middle;whiteSpace=wrap;rounded=0;" parent="1" vertex="1">
          <mxGeometry x="154" y="225" width="60" height="30" as="geometry" />
        </mxCell>
        <mxCell id="BXiqwRlGKzKQuI-ZINDh-69" value="" style="shape=mxgraph.cisco.computers_and_peripherals.pc;sketch=0;html=1;pointerEvents=1;dashed=0;fillColor=#036897;strokeColor=#ffffff;strokeWidth=2;verticalLabelPosition=bottom;verticalAlign=top;align=center;outlineConnect=0;" parent="1" vertex="1">
          <mxGeometry x="996.5" y="425" width="78" height="70" as="geometry" />
        </mxCell>
        <mxCell id="BXiqwRlGKzKQuI-ZINDh-70" value="" style="shape=mxgraph.cisco.computers_and_peripherals.pc;sketch=0;html=1;pointerEvents=1;dashed=0;fillColor=#036897;strokeColor=#ffffff;strokeWidth=2;verticalLabelPosition=bottom;verticalAlign=top;align=center;outlineConnect=0;" parent="1" vertex="1">
          <mxGeometry x="866.5" y="445" width="78" height="70" as="geometry" />
        </mxCell>
        <mxCell id="BXiqwRlGKzKQuI-ZINDh-71" value="" style="shape=mxgraph.cisco.computers_and_peripherals.pc;sketch=0;html=1;pointerEvents=1;dashed=0;fillColor=#036897;strokeColor=#ffffff;strokeWidth=2;verticalLabelPosition=bottom;verticalAlign=top;align=center;outlineConnect=0;" parent="1" vertex="1">
          <mxGeometry x="746.5" y="445" width="78" height="70" as="geometry" />
        </mxCell>
        <mxCell id="BXiqwRlGKzKQuI-ZINDh-72" value="" style="shape=mxgraph.cisco.computers_and_peripherals.pc;sketch=0;html=1;pointerEvents=1;dashed=0;fillColor=#036897;strokeColor=#ffffff;strokeWidth=2;verticalLabelPosition=bottom;verticalAlign=top;align=center;outlineConnect=0;" parent="1" vertex="1">
          <mxGeometry x="616.5" y="445" width="78" height="70" as="geometry" />
        </mxCell>
        <mxCell id="BXiqwRlGKzKQuI-ZINDh-73" value="" style="shape=mxgraph.cisco.computers_and_peripherals.pc;sketch=0;html=1;pointerEvents=1;dashed=0;fillColor=#036897;strokeColor=#ffffff;strokeWidth=2;verticalLabelPosition=bottom;verticalAlign=top;align=center;outlineConnect=0;" parent="1" vertex="1">
          <mxGeometry x="493.5" y="445" width="78" height="70" as="geometry" />
        </mxCell>
        <mxCell id="g66wI6sif0jjf1UmDSFJ-40" style="edgeStyle=orthogonalEdgeStyle;rounded=0;orthogonalLoop=1;jettySize=auto;html=1;" parent="1" source="BXiqwRlGKzKQuI-ZINDh-75" target="BXiqwRlGKzKQuI-ZINDh-93" edge="1">
          <mxGeometry relative="1" as="geometry">
            <Array as="points">
              <mxPoint x="510" y="140" />
            </Array>
          </mxGeometry>
        </mxCell>
        <mxCell id="BXiqwRlGKzKQuI-ZINDh-75" value="" style="shape=mxgraph.cisco.switches.workgroup_switch;sketch=0;html=1;pointerEvents=1;dashed=0;fillColor=#036897;strokeColor=#ffffff;strokeWidth=2;verticalLabelPosition=bottom;verticalAlign=top;align=center;outlineConnect=0;" parent="1" vertex="1">
          <mxGeometry x="482" y="300" width="101" height="50" as="geometry" />
        </mxCell>
        <mxCell id="g66wI6sif0jjf1UmDSFJ-41" style="edgeStyle=orthogonalEdgeStyle;rounded=0;orthogonalLoop=1;jettySize=auto;html=1;" parent="1" source="BXiqwRlGKzKQuI-ZINDh-77" target="BXiqwRlGKzKQuI-ZINDh-93" edge="1">
          <mxGeometry relative="1" as="geometry">
            <Array as="points">
              <mxPoint x="640" y="170" />
              <mxPoint x="780" y="170" />
            </Array>
          </mxGeometry>
        </mxCell>
        <mxCell id="BXiqwRlGKzKQuI-ZINDh-77" value="" style="shape=mxgraph.cisco.switches.workgroup_switch;sketch=0;html=1;pointerEvents=1;dashed=0;fillColor=#036897;strokeColor=#ffffff;strokeWidth=2;verticalLabelPosition=bottom;verticalAlign=top;align=center;outlineConnect=0;" parent="1" vertex="1">
          <mxGeometry x="605" y="300" width="101" height="50" as="geometry" />
        </mxCell>
        <mxCell id="g66wI6sif0jjf1UmDSFJ-42" style="edgeStyle=orthogonalEdgeStyle;rounded=0;orthogonalLoop=1;jettySize=auto;html=1;" parent="1" source="BXiqwRlGKzKQuI-ZINDh-79" target="BXiqwRlGKzKQuI-ZINDh-93" edge="1">
          <mxGeometry relative="1" as="geometry">
            <Array as="points">
              <mxPoint x="800" y="260" />
              <mxPoint x="800" y="260" />
            </Array>
          </mxGeometry>
        </mxCell>
        <mxCell id="BXiqwRlGKzKQuI-ZINDh-79" value="" style="shape=mxgraph.cisco.switches.workgroup_switch;sketch=0;html=1;pointerEvents=1;dashed=0;fillColor=#036897;strokeColor=#ffffff;strokeWidth=2;verticalLabelPosition=bottom;verticalAlign=top;align=center;outlineConnect=0;" parent="1" vertex="1">
          <mxGeometry x="735" y="300" width="101" height="50" as="geometry" />
        </mxCell>
        <mxCell id="g66wI6sif0jjf1UmDSFJ-48" style="edgeStyle=orthogonalEdgeStyle;rounded=0;orthogonalLoop=1;jettySize=auto;html=1;" parent="1" source="BXiqwRlGKzKQuI-ZINDh-80" target="BXiqwRlGKzKQuI-ZINDh-93" edge="1">
          <mxGeometry relative="1" as="geometry">
            <Array as="points">
              <mxPoint x="1036" y="200" />
              <mxPoint x="860" y="200" />
            </Array>
          </mxGeometry>
        </mxCell>
        <mxCell id="BXiqwRlGKzKQuI-ZINDh-80" value="" style="shape=mxgraph.cisco.switches.workgroup_switch;sketch=0;html=1;pointerEvents=1;dashed=0;fillColor=#036897;strokeColor=#ffffff;strokeWidth=2;verticalLabelPosition=bottom;verticalAlign=top;align=center;outlineConnect=0;" parent="1" vertex="1">
          <mxGeometry x="985" y="295" width="101" height="50" as="geometry" />
        </mxCell>
        <mxCell id="BXiqwRlGKzKQuI-ZINDh-81" value="IT&lt;div&gt;Floor 3&lt;br&gt;&lt;div&gt;(10)&lt;/div&gt;&lt;/div&gt;" style="text;html=1;align=center;verticalAlign=middle;whiteSpace=wrap;rounded=0;" parent="1" vertex="1">
          <mxGeometry x="487" y="525" width="91" height="40" as="geometry" />
        </mxCell>
        <mxCell id="BXiqwRlGKzKQuI-ZINDh-82" value="Legal&amp;nbsp;&lt;div&gt;(25)&lt;/div&gt;" style="text;html=1;align=center;verticalAlign=middle;whiteSpace=wrap;rounded=0;" parent="1" vertex="1">
          <mxGeometry x="610" y="525" width="91" height="40" as="geometry" />
        </mxCell>
        <mxCell id="BXiqwRlGKzKQuI-ZINDh-83" value="Finance&lt;div&gt;(28)&lt;/div&gt;" style="text;html=1;align=center;verticalAlign=middle;whiteSpace=wrap;rounded=0;" parent="1" vertex="1">
          <mxGeometry x="740" y="525" width="91" height="40" as="geometry" />
        </mxCell>
        <mxCell id="BXiqwRlGKzKQuI-ZINDh-84" value="HR&lt;div&gt;(25)&lt;/div&gt;" style="text;html=1;align=center;verticalAlign=middle;whiteSpace=wrap;rounded=0;" parent="1" vertex="1">
          <mxGeometry x="856.5" y="525" width="91" height="40" as="geometry" />
        </mxCell>
        <mxCell id="BXiqwRlGKzKQuI-ZINDh-85" value="Research&amp;amp;Analysis&lt;div&gt;Floor 4&lt;/div&gt;&lt;div&gt;(4)&lt;/div&gt;" style="text;html=1;align=center;verticalAlign=middle;whiteSpace=wrap;rounded=0;" parent="1" vertex="1">
          <mxGeometry x="990" y="525" width="91" height="40" as="geometry" />
        </mxCell>
        <mxCell id="g66wI6sif0jjf1UmDSFJ-43" style="edgeStyle=orthogonalEdgeStyle;rounded=0;orthogonalLoop=1;jettySize=auto;html=1;" parent="1" source="BXiqwRlGKzKQuI-ZINDh-87" target="BXiqwRlGKzKQuI-ZINDh-93" edge="1">
          <mxGeometry relative="1" as="geometry" />
        </mxCell>
        <mxCell id="BXiqwRlGKzKQuI-ZINDh-87" value="" style="shape=mxgraph.cisco.switches.workgroup_switch;sketch=0;html=1;pointerEvents=1;dashed=0;fillColor=#036897;strokeColor=#ffffff;strokeWidth=2;verticalLabelPosition=bottom;verticalAlign=top;align=center;outlineConnect=0;" parent="1" vertex="1">
          <mxGeometry x="855" y="300" width="101" height="50" as="geometry" />
        </mxCell>
        <mxCell id="BXiqwRlGKzKQuI-ZINDh-88" value="" style="endArrow=none;html=1;rounded=0;exitX=0.5;exitY=0;exitDx=0;exitDy=0;exitPerimeter=0;entryX=0.5;entryY=0.98;entryDx=0;entryDy=0;entryPerimeter=0;" parent="1" source="BXiqwRlGKzKQuI-ZINDh-73" target="BXiqwRlGKzKQuI-ZINDh-75" edge="1">
          <mxGeometry width="50" height="50" relative="1" as="geometry">
            <mxPoint x="675" y="415" as="sourcePoint" />
            <mxPoint x="725" y="365" as="targetPoint" />
          </mxGeometry>
        </mxCell>
        <mxCell id="BXiqwRlGKzKQuI-ZINDh-89" value="" style="endArrow=none;html=1;rounded=0;" parent="1" source="BXiqwRlGKzKQuI-ZINDh-72" target="BXiqwRlGKzKQuI-ZINDh-77" edge="1">
          <mxGeometry width="50" height="50" relative="1" as="geometry">
            <mxPoint x="635" y="445" as="sourcePoint" />
            <mxPoint x="685" y="395" as="targetPoint" />
          </mxGeometry>
        </mxCell>
        <mxCell id="BXiqwRlGKzKQuI-ZINDh-90" value="" style="endArrow=none;html=1;rounded=0;entryX=0.5;entryY=0.98;entryDx=0;entryDy=0;entryPerimeter=0;" parent="1" source="BXiqwRlGKzKQuI-ZINDh-71" target="BXiqwRlGKzKQuI-ZINDh-79" edge="1">
          <mxGeometry width="50" height="50" relative="1" as="geometry">
            <mxPoint x="785" y="435" as="sourcePoint" />
            <mxPoint x="835" y="385" as="targetPoint" />
          </mxGeometry>
        </mxCell>
        <mxCell id="BXiqwRlGKzKQuI-ZINDh-91" value="" style="endArrow=none;html=1;rounded=0;" parent="1" source="BXiqwRlGKzKQuI-ZINDh-70" target="BXiqwRlGKzKQuI-ZINDh-87" edge="1">
          <mxGeometry width="50" height="50" relative="1" as="geometry">
            <mxPoint x="928" y="415" as="sourcePoint" />
            <mxPoint x="928" y="385" as="targetPoint" />
          </mxGeometry>
        </mxCell>
        <mxCell id="BXiqwRlGKzKQuI-ZINDh-92" value="" style="endArrow=none;html=1;rounded=0;" parent="1" source="BXiqwRlGKzKQuI-ZINDh-69" target="BXiqwRlGKzKQuI-ZINDh-80" edge="1">
          <mxGeometry width="50" height="50" relative="1" as="geometry">
            <mxPoint x="1012.02" y="425" as="sourcePoint" />
            <mxPoint x="1062.02" y="375" as="targetPoint" />
          </mxGeometry>
        </mxCell>
        <mxCell id="g66wI6sif0jjf1UmDSFJ-50" style="edgeStyle=orthogonalEdgeStyle;rounded=0;orthogonalLoop=1;jettySize=auto;html=1;" parent="1" source="BXiqwRlGKzKQuI-ZINDh-93" target="BXiqwRlGKzKQuI-ZINDh-128" edge="1">
          <mxGeometry relative="1" as="geometry">
            <Array as="points">
              <mxPoint x="825" y="40" />
              <mxPoint x="260" y="40" />
            </Array>
          </mxGeometry>
        </mxCell>
        <mxCell id="BXiqwRlGKzKQuI-ZINDh-93" value="" style="shape=mxgraph.cisco.switches.workgroup_switch;sketch=0;html=1;pointerEvents=1;dashed=0;fillColor=#036897;strokeColor=#ffffff;strokeWidth=2;verticalLabelPosition=bottom;verticalAlign=top;align=center;outlineConnect=0;" parent="1" vertex="1">
          <mxGeometry x="774" y="100" width="101" height="50" as="geometry" />
        </mxCell>
        <mxCell id="BXiqwRlGKzKQuI-ZINDh-95" value="&lt;font style=&quot;font-size: 14px;&quot;&gt;3208&lt;/font&gt;" style="text;html=1;align=center;verticalAlign=middle;whiteSpace=wrap;rounded=0;" parent="1" vertex="1">
          <mxGeometry x="440.5" y="465" width="60" height="30" as="geometry" />
        </mxCell>
        <mxCell id="BXiqwRlGKzKQuI-ZINDh-96" value="&lt;font style=&quot;font-size: 14px;&quot;&gt;2351&lt;/font&gt;" style="text;html=1;align=center;verticalAlign=middle;whiteSpace=wrap;rounded=0;" parent="1" vertex="1">
          <mxGeometry x="634.5" y="255" width="60" height="30" as="geometry" />
        </mxCell>
        <mxCell id="BXiqwRlGKzKQuI-ZINDh-97" value="2042" style="text;html=1;align=center;verticalAlign=middle;whiteSpace=wrap;rounded=0;" parent="1" vertex="1">
          <mxGeometry x="790" y="245" width="60" height="30" as="geometry" />
        </mxCell>
        <mxCell id="BXiqwRlGKzKQuI-ZINDh-98" value="1901" style="text;html=1;align=center;verticalAlign=middle;whiteSpace=wrap;rounded=0;" parent="1" vertex="1">
          <mxGeometry x="896" y="245" width="60" height="30" as="geometry" />
        </mxCell>
        <mxCell id="BXiqwRlGKzKQuI-ZINDh-99" value="1743" style="text;html=1;align=center;verticalAlign=middle;whiteSpace=wrap;rounded=0;" parent="1" vertex="1">
          <mxGeometry x="1074.5" y="410" width="60" height="30" as="geometry" />
        </mxCell>
        <mxCell id="BXiqwRlGKzKQuI-ZINDh-101" value="" style="shape=mxgraph.cisco.computers_and_peripherals.pc;sketch=0;html=1;pointerEvents=1;dashed=0;fillColor=#036897;strokeColor=#ffffff;strokeWidth=2;verticalLabelPosition=bottom;verticalAlign=top;align=center;outlineConnect=0;" parent="1" vertex="1">
          <mxGeometry x="1366.5" y="425" width="78" height="70" as="geometry" />
        </mxCell>
        <mxCell id="BXiqwRlGKzKQuI-ZINDh-102" value="" style="shape=mxgraph.cisco.computers_and_peripherals.pc;sketch=0;html=1;pointerEvents=1;dashed=0;fillColor=#036897;strokeColor=#ffffff;strokeWidth=2;verticalLabelPosition=bottom;verticalAlign=top;align=center;outlineConnect=0;" parent="1" vertex="1">
          <mxGeometry x="1241.5" y="425" width="78" height="70" as="geometry" />
        </mxCell>
        <mxCell id="g66wI6sif0jjf1UmDSFJ-49" style="edgeStyle=orthogonalEdgeStyle;rounded=0;orthogonalLoop=1;jettySize=auto;html=1;" parent="1" source="BXiqwRlGKzKQuI-ZINDh-103" target="BXiqwRlGKzKQuI-ZINDh-93" edge="1">
          <mxGeometry relative="1" as="geometry">
            <Array as="points">
              <mxPoint x="1406" y="110" />
            </Array>
          </mxGeometry>
        </mxCell>
        <mxCell id="BXiqwRlGKzKQuI-ZINDh-103" value="" style="shape=mxgraph.cisco.switches.workgroup_switch;sketch=0;html=1;pointerEvents=1;dashed=0;fillColor=#036897;strokeColor=#ffffff;strokeWidth=2;verticalLabelPosition=bottom;verticalAlign=top;align=center;outlineConnect=0;" parent="1" vertex="1">
          <mxGeometry x="1355" y="300" width="101" height="50" as="geometry" />
        </mxCell>
        <mxCell id="BXiqwRlGKzKQuI-ZINDh-104" value="Project Management&amp;nbsp;&lt;div&gt;(16)&lt;/div&gt;" style="text;html=1;align=center;verticalAlign=middle;whiteSpace=wrap;rounded=0;" parent="1" vertex="1">
          <mxGeometry x="1235" y="515" width="91" height="40" as="geometry" />
        </mxCell>
        <mxCell id="BXiqwRlGKzKQuI-ZINDh-105" value="Executive&lt;div&gt;(1)&lt;/div&gt;" style="text;html=1;align=center;verticalAlign=middle;whiteSpace=wrap;rounded=0;" parent="1" vertex="1">
          <mxGeometry x="1360" y="510" width="91" height="40" as="geometry" />
        </mxCell>
        <mxCell id="g66wI6sif0jjf1UmDSFJ-47" style="edgeStyle=orthogonalEdgeStyle;rounded=0;orthogonalLoop=1;jettySize=auto;html=1;" parent="1" source="BXiqwRlGKzKQuI-ZINDh-106" target="BXiqwRlGKzKQuI-ZINDh-93" edge="1">
          <mxGeometry relative="1" as="geometry">
            <Array as="points">
              <mxPoint x="1296" y="125" />
            </Array>
          </mxGeometry>
        </mxCell>
        <mxCell id="BXiqwRlGKzKQuI-ZINDh-106" value="" style="shape=mxgraph.cisco.switches.workgroup_switch;sketch=0;html=1;pointerEvents=1;dashed=0;fillColor=#036897;strokeColor=#ffffff;strokeWidth=2;verticalLabelPosition=bottom;verticalAlign=top;align=center;outlineConnect=0;" parent="1" vertex="1">
          <mxGeometry x="1230" y="300" width="101" height="50" as="geometry" />
        </mxCell>
        <mxCell id="BXiqwRlGKzKQuI-ZINDh-107" value="" style="endArrow=none;html=1;rounded=0;" parent="1" source="BXiqwRlGKzKQuI-ZINDh-102" target="BXiqwRlGKzKQuI-ZINDh-106" edge="1">
          <mxGeometry width="50" height="50" relative="1" as="geometry">
            <mxPoint x="1330" y="395" as="sourcePoint" />
            <mxPoint x="1330" y="365" as="targetPoint" />
          </mxGeometry>
        </mxCell>
        <mxCell id="BXiqwRlGKzKQuI-ZINDh-108" value="" style="endArrow=none;html=1;rounded=0;" parent="1" source="BXiqwRlGKzKQuI-ZINDh-101" target="BXiqwRlGKzKQuI-ZINDh-103" edge="1">
          <mxGeometry width="50" height="50" relative="1" as="geometry">
            <mxPoint x="1351.5" y="425" as="sourcePoint" />
            <mxPoint x="1401.5" y="375" as="targetPoint" />
          </mxGeometry>
        </mxCell>
        <mxCell id="BXiqwRlGKzKQuI-ZINDh-109" value="1263" style="text;html=1;align=center;verticalAlign=middle;whiteSpace=wrap;rounded=0;" parent="1" vertex="1">
          <mxGeometry x="1285" y="260" width="60" height="30" as="geometry" />
        </mxCell>
        <mxCell id="BXiqwRlGKzKQuI-ZINDh-110" value="71" style="text;html=1;align=center;verticalAlign=middle;whiteSpace=wrap;rounded=0;" parent="1" vertex="1">
          <mxGeometry x="1396" y="255" width="60" height="30" as="geometry" />
        </mxCell>
        <mxCell id="BXiqwRlGKzKQuI-ZINDh-124" style="edgeStyle=orthogonalEdgeStyle;rounded=0;orthogonalLoop=1;jettySize=auto;html=1;exitX=0.5;exitY=0;exitDx=0;exitDy=0;exitPerimeter=0;entryX=0;entryY=1;entryDx=0;entryDy=0;entryPerimeter=0;" parent="1" source="BXiqwRlGKzKQuI-ZINDh-29" target="BXiqwRlGKzKQuI-ZINDh-128" edge="1">
          <mxGeometry relative="1" as="geometry">
            <mxPoint x="210" y="-25" as="targetPoint" />
            <Array as="points">
              <mxPoint x="-231" y="40" />
              <mxPoint x="227" y="40" />
            </Array>
          </mxGeometry>
        </mxCell>
        <mxCell id="BXiqwRlGKzKQuI-ZINDh-126" value="&lt;font style=&quot;font-size: 14px;&quot;&gt;&lt;b&gt;&lt;font style=&quot;&quot;&gt;1257&lt;/font&gt;9&lt;/b&gt;&lt;/font&gt;" style="text;html=1;align=center;verticalAlign=middle;whiteSpace=wrap;rounded=0;" parent="1" vertex="1">
          <mxGeometry x="273.5" width="60" height="30" as="geometry" />
        </mxCell>
        <mxCell id="BXiqwRlGKzKQuI-ZINDh-127" value="&lt;font style=&quot;font-size: 14px;&quot;&gt;&lt;b&gt;12621&lt;/b&gt;&lt;/font&gt;" style="text;html=1;align=center;verticalAlign=middle;whiteSpace=wrap;rounded=0;" parent="1" vertex="1">
          <mxGeometry x="129" width="60" height="30" as="geometry" />
        </mxCell>
        <mxCell id="BXiqwRlGKzKQuI-ZINDh-128" value="" style="shape=mxgraph.cisco.switches.layer_3_switch;sketch=0;html=1;pointerEvents=1;dashed=0;fillColor=#036897;strokeColor=#ffffff;strokeWidth=2;verticalLabelPosition=bottom;verticalAlign=top;align=center;outlineConnect=0;" parent="1" vertex="1">
          <mxGeometry x="226.5" y="-212.75" width="64" height="64" as="geometry" />
        </mxCell>
        <mxCell id="g66wI6sif0jjf1UmDSFJ-1" value="" style="shape=mxgraph.cisco.computers_and_peripherals.pc;sketch=0;html=1;pointerEvents=1;dashed=0;fillColor=#036897;strokeColor=#ffffff;strokeWidth=2;verticalLabelPosition=bottom;verticalAlign=top;align=center;outlineConnect=0;" parent="1" vertex="1">
          <mxGeometry x="-149" y="410" width="78" height="70" as="geometry" />
        </mxCell>
        <mxCell id="g66wI6sif0jjf1UmDSFJ-23" style="edgeStyle=orthogonalEdgeStyle;rounded=0;orthogonalLoop=1;jettySize=auto;html=1;entryX=0.87;entryY=0.74;entryDx=0;entryDy=0;entryPerimeter=0;" parent="1" source="g66wI6sif0jjf1UmDSFJ-2" target="BXiqwRlGKzKQuI-ZINDh-29" edge="1">
          <mxGeometry relative="1" as="geometry">
            <mxPoint x="-109.50000000000045" y="250" as="targetPoint" />
            <Array as="points">
              <mxPoint x="-109" y="170" />
              <mxPoint x="-194" y="170" />
            </Array>
          </mxGeometry>
        </mxCell>
        <mxCell id="g66wI6sif0jjf1UmDSFJ-2" value="" style="shape=mxgraph.cisco.switches.workgroup_switch;sketch=0;html=1;pointerEvents=1;dashed=0;fillColor=#036897;strokeColor=#ffffff;strokeWidth=2;verticalLabelPosition=bottom;verticalAlign=top;align=center;outlineConnect=0;" parent="1" vertex="1">
          <mxGeometry x="-160" y="300" width="101" height="50" as="geometry" />
        </mxCell>
        <mxCell id="g66wI6sif0jjf1UmDSFJ-3" value="Sales&amp;amp;Marketing Floor 2&lt;div&gt;(9)&lt;/div&gt;" style="text;html=1;align=center;verticalAlign=middle;whiteSpace=wrap;rounded=0;" parent="1" vertex="1">
          <mxGeometry x="-160" y="500" width="91" height="40" as="geometry" />
        </mxCell>
        <mxCell id="g66wI6sif0jjf1UmDSFJ-4" value="" style="endArrow=none;html=1;rounded=0;entryX=0.5;entryY=0.98;entryDx=0;entryDy=0;entryPerimeter=0;" parent="1" source="g66wI6sif0jjf1UmDSFJ-1" target="g66wI6sif0jjf1UmDSFJ-2" edge="1">
          <mxGeometry width="50" height="50" relative="1" as="geometry">
            <mxPoint x="-149" y="400" as="sourcePoint" />
            <mxPoint x="-99" y="350" as="targetPoint" />
          </mxGeometry>
        </mxCell>
        <mxCell id="g66wI6sif0jjf1UmDSFJ-6" value="" style="shape=mxgraph.cisco.computers_and_peripherals.pc;sketch=0;html=1;pointerEvents=1;dashed=0;fillColor=#036897;strokeColor=#ffffff;strokeWidth=2;verticalLabelPosition=bottom;verticalAlign=top;align=center;outlineConnect=0;" parent="1" vertex="1">
          <mxGeometry x="371.5" y="445" width="78" height="70" as="geometry" />
        </mxCell>
        <mxCell id="g66wI6sif0jjf1UmDSFJ-39" style="edgeStyle=orthogonalEdgeStyle;rounded=0;orthogonalLoop=1;jettySize=auto;html=1;" parent="1" source="g66wI6sif0jjf1UmDSFJ-7" target="BXiqwRlGKzKQuI-ZINDh-93" edge="1">
          <mxGeometry relative="1" as="geometry">
            <Array as="points">
              <mxPoint x="390" y="125" />
            </Array>
          </mxGeometry>
        </mxCell>
        <mxCell id="g66wI6sif0jjf1UmDSFJ-7" value="" style="shape=mxgraph.cisco.switches.workgroup_switch;sketch=0;html=1;pointerEvents=1;dashed=0;fillColor=#036897;strokeColor=#ffffff;strokeWidth=2;verticalLabelPosition=bottom;verticalAlign=top;align=center;outlineConnect=0;" parent="1" vertex="1">
          <mxGeometry x="360" y="300" width="101" height="50" as="geometry" />
        </mxCell>
        <mxCell id="g66wI6sif0jjf1UmDSFJ-8" value="IT&lt;div&gt;Floor 2&lt;br&gt;&lt;div&gt;(36)&lt;/div&gt;&lt;/div&gt;" style="text;html=1;align=center;verticalAlign=middle;whiteSpace=wrap;rounded=0;" parent="1" vertex="1">
          <mxGeometry x="365" y="525" width="91" height="40" as="geometry" />
        </mxCell>
        <mxCell id="g66wI6sif0jjf1UmDSFJ-9" value="" style="endArrow=none;html=1;rounded=0;exitX=0.5;exitY=0;exitDx=0;exitDy=0;exitPerimeter=0;entryX=0.5;entryY=0.98;entryDx=0;entryDy=0;entryPerimeter=0;" parent="1" source="g66wI6sif0jjf1UmDSFJ-6" target="g66wI6sif0jjf1UmDSFJ-7" edge="1">
          <mxGeometry width="50" height="50" relative="1" as="geometry">
            <mxPoint x="548" y="415" as="sourcePoint" />
            <mxPoint x="598" y="365" as="targetPoint" />
          </mxGeometry>
        </mxCell>
        <mxCell id="g66wI6sif0jjf1UmDSFJ-10" value="" style="shape=mxgraph.cisco.computers_and_peripherals.pc;sketch=0;html=1;pointerEvents=1;dashed=0;fillColor=#036897;strokeColor=#ffffff;strokeWidth=2;verticalLabelPosition=bottom;verticalAlign=top;align=center;outlineConnect=0;" parent="1" vertex="1">
          <mxGeometry x="-677" y="410" width="78" height="70" as="geometry" />
        </mxCell>
        <mxCell id="g66wI6sif0jjf1UmDSFJ-11" value="" style="shape=mxgraph.cisco.switches.workgroup_switch;sketch=0;html=1;pointerEvents=1;dashed=0;fillColor=#036897;strokeColor=#ffffff;strokeWidth=2;verticalLabelPosition=bottom;verticalAlign=top;align=center;outlineConnect=0;" parent="1" vertex="1">
          <mxGeometry x="-688" y="310" width="101" height="50" as="geometry" />
        </mxCell>
        <mxCell id="g66wI6sif0jjf1UmDSFJ-12" value="Business Consultants&lt;div&gt;Floor 3&amp;nbsp;&lt;/div&gt;&lt;div&gt;(27)&lt;/div&gt;" style="text;html=1;align=center;verticalAlign=middle;whiteSpace=wrap;rounded=0;" parent="1" vertex="1">
          <mxGeometry x="-720" y="490" width="121" height="40" as="geometry" />
        </mxCell>
        <mxCell id="g66wI6sif0jjf1UmDSFJ-13" value="" style="endArrow=none;html=1;rounded=0;exitX=0.5;exitY=0;exitDx=0;exitDy=0;exitPerimeter=0;entryX=0.5;entryY=0.98;entryDx=0;entryDy=0;entryPerimeter=0;" parent="1" source="g66wI6sif0jjf1UmDSFJ-10" target="g66wI6sif0jjf1UmDSFJ-11" edge="1">
          <mxGeometry width="50" height="50" relative="1" as="geometry">
            <mxPoint x="-507" y="380" as="sourcePoint" />
            <mxPoint x="-457" y="330" as="targetPoint" />
          </mxGeometry>
        </mxCell>
        <mxCell id="g66wI6sif0jjf1UmDSFJ-14" value="" style="shape=mxgraph.cisco.computers_and_peripherals.pc;sketch=0;html=1;pointerEvents=1;dashed=0;fillColor=#036897;strokeColor=#ffffff;strokeWidth=2;verticalLabelPosition=bottom;verticalAlign=top;align=center;outlineConnect=0;" parent="1" vertex="1">
          <mxGeometry x="1121.5" y="425" width="78" height="70" as="geometry" />
        </mxCell>
        <mxCell id="g66wI6sif0jjf1UmDSFJ-15" value="" style="shape=mxgraph.cisco.switches.workgroup_switch;sketch=0;html=1;pointerEvents=1;dashed=0;fillColor=#036897;strokeColor=#ffffff;strokeWidth=2;verticalLabelPosition=bottom;verticalAlign=top;align=center;outlineConnect=0;" parent="1" vertex="1">
          <mxGeometry x="1110" y="300" width="101" height="50" as="geometry" />
        </mxCell>
        <mxCell id="g66wI6sif0jjf1UmDSFJ-16" value="Research&amp;amp;Analysis&lt;div&gt;Floor 5&lt;/div&gt;&lt;div&gt;(12)&lt;/div&gt;" style="text;html=1;align=center;verticalAlign=middle;whiteSpace=wrap;rounded=0;" parent="1" vertex="1">
          <mxGeometry x="1115" y="515" width="91" height="40" as="geometry" />
        </mxCell>
        <mxCell id="g66wI6sif0jjf1UmDSFJ-17" value="" style="endArrow=none;html=1;rounded=0;" parent="1" source="g66wI6sif0jjf1UmDSFJ-14" target="g66wI6sif0jjf1UmDSFJ-15" edge="1">
          <mxGeometry width="50" height="50" relative="1" as="geometry">
            <mxPoint x="1111.5" y="425" as="sourcePoint" />
            <mxPoint x="1161.5" y="375" as="targetPoint" />
          </mxGeometry>
        </mxCell>
        <mxCell id="g66wI6sif0jjf1UmDSFJ-19" style="edgeStyle=orthogonalEdgeStyle;rounded=0;orthogonalLoop=1;jettySize=auto;html=1;" parent="1" target="BXiqwRlGKzKQuI-ZINDh-29" edge="1">
          <mxGeometry relative="1" as="geometry">
            <mxPoint x="-659.998260869565" y="310" as="sourcePoint" />
            <mxPoint x="-287.8600000000001" y="101.5" as="targetPoint" />
            <Array as="points">
              <mxPoint x="-660" y="115" />
            </Array>
          </mxGeometry>
        </mxCell>
        <mxCell id="g66wI6sif0jjf1UmDSFJ-24" style="edgeStyle=orthogonalEdgeStyle;rounded=0;orthogonalLoop=1;jettySize=auto;html=1;entryX=0.98;entryY=0.5;entryDx=0;entryDy=0;entryPerimeter=0;" parent="1" source="BXiqwRlGKzKQuI-ZINDh-23" target="BXiqwRlGKzKQuI-ZINDh-29" edge="1">
          <mxGeometry relative="1" as="geometry">
            <Array as="points">
              <mxPoint x="30" y="140" />
              <mxPoint x="-183" y="140" />
            </Array>
          </mxGeometry>
        </mxCell>
        <mxCell id="g66wI6sif0jjf1UmDSFJ-26" value="2531" style="text;html=1;align=center;verticalAlign=middle;whiteSpace=wrap;rounded=0;" parent="1" vertex="1">
          <mxGeometry x="-667.5" y="260" width="60" height="30" as="geometry" />
        </mxCell>
        <mxCell id="g66wI6sif0jjf1UmDSFJ-27" value="3187" style="text;html=1;align=center;verticalAlign=middle;whiteSpace=wrap;rounded=0;" parent="1" vertex="1">
          <mxGeometry x="-532" y="260" width="60" height="30" as="geometry" />
        </mxCell>
        <mxCell id="g66wI6sif0jjf1UmDSFJ-28" value="1217" style="text;html=1;align=center;verticalAlign=middle;whiteSpace=wrap;rounded=0;" parent="1" vertex="1">
          <mxGeometry x="-240.5" y="260" width="60" height="30" as="geometry" />
        </mxCell>
        <mxCell id="g66wI6sif0jjf1UmDSFJ-34" value="684" style="text;html=1;align=center;verticalAlign=middle;whiteSpace=wrap;rounded=0;" parent="1" vertex="1">
          <mxGeometry x="-112" y="245" width="60" height="30" as="geometry" />
        </mxCell>
        <mxCell id="g66wI6sif0jjf1UmDSFJ-35" value="2511" style="text;html=1;align=center;verticalAlign=middle;whiteSpace=wrap;rounded=0;" parent="1" vertex="1">
          <mxGeometry x="380.5" y="245" width="60" height="30" as="geometry" />
        </mxCell>
        <mxCell id="g66wI6sif0jjf1UmDSFJ-36" value="697" style="text;html=1;align=center;verticalAlign=middle;whiteSpace=wrap;rounded=0;" parent="1" vertex="1">
          <mxGeometry x="502.5" y="245" width="60" height="30" as="geometry" />
        </mxCell>
        <mxCell id="g66wI6sif0jjf1UmDSFJ-37" value="436" style="text;html=1;align=center;verticalAlign=middle;whiteSpace=wrap;rounded=0;" parent="1" vertex="1">
          <mxGeometry x="1026" y="245" width="60" height="30" as="geometry" />
        </mxCell>
        <mxCell id="g66wI6sif0jjf1UmDSFJ-38" value="1307" style="text;html=1;align=center;verticalAlign=middle;whiteSpace=wrap;rounded=0;" parent="1" vertex="1">
          <mxGeometry x="1139.5" y="260" width="60" height="30" as="geometry" />
        </mxCell>
        <mxCell id="g66wI6sif0jjf1UmDSFJ-46" style="edgeStyle=orthogonalEdgeStyle;rounded=0;orthogonalLoop=1;jettySize=auto;html=1;entryX=0.98;entryY=0.5;entryDx=0;entryDy=0;entryPerimeter=0;" parent="1" source="g66wI6sif0jjf1UmDSFJ-15" edge="1">
          <mxGeometry relative="1" as="geometry">
            <mxPoint x="1134.5" y="315.0000000000002" as="sourcePoint" />
            <mxPoint x="867.4799999999996" y="140.00000000000023" as="targetPoint" />
            <Array as="points">
              <mxPoint x="1135" y="140" />
            </Array>
          </mxGeometry>
        </mxCell>
        <mxCell id="D1z5Sd_cmgpTsEMFyd4e-1" value="" style="shape=mxgraph.cisco.servers.fileserver;sketch=0;html=1;pointerEvents=1;dashed=0;fillColor=#036897;strokeColor=#ffffff;strokeWidth=2;verticalLabelPosition=bottom;verticalAlign=top;align=center;outlineConnect=0;" parent="1" vertex="1">
          <mxGeometry x="-323.5" y="-262.75" width="43" height="62" as="geometry" />
        </mxCell>
        <mxCell id="D1z5Sd_cmgpTsEMFyd4e-2" value="" style="shape=mxgraph.cisco.servers.fileserver;sketch=0;html=1;pointerEvents=1;dashed=0;fillColor=#036897;strokeColor=#ffffff;strokeWidth=2;verticalLabelPosition=bottom;verticalAlign=top;align=center;outlineConnect=0;" parent="1" vertex="1">
          <mxGeometry x="-240" y="-262.75" width="43" height="62" as="geometry" />
        </mxCell>
        <mxCell id="D1z5Sd_cmgpTsEMFyd4e-3" value="" style="shape=mxgraph.cisco.servers.fileserver;sketch=0;html=1;pointerEvents=1;dashed=0;fillColor=#036897;strokeColor=#ffffff;strokeWidth=2;verticalLabelPosition=bottom;verticalAlign=top;align=center;outlineConnect=0;" parent="1" vertex="1">
          <mxGeometry x="-154" y="-271.75" width="43" height="62" as="geometry" />
        </mxCell>
        <mxCell id="D1z5Sd_cmgpTsEMFyd4e-4" value="" style="shape=mxgraph.cisco.servers.fileserver;sketch=0;html=1;pointerEvents=1;dashed=0;fillColor=#036897;strokeColor=#ffffff;strokeWidth=2;verticalLabelPosition=bottom;verticalAlign=top;align=center;outlineConnect=0;" parent="1" vertex="1">
          <mxGeometry x="-63" y="-262.75" width="43" height="62" as="geometry" />
        </mxCell>
        <mxCell id="D1z5Sd_cmgpTsEMFyd4e-5" value="" style="shape=mxgraph.cisco.servers.fileserver;sketch=0;html=1;pointerEvents=1;dashed=0;fillColor=#036897;strokeColor=#ffffff;strokeWidth=2;verticalLabelPosition=bottom;verticalAlign=top;align=center;outlineConnect=0;" parent="1" vertex="1">
          <mxGeometry x="-404" y="-262.75" width="43" height="62" as="geometry" />
        </mxCell>
        <mxCell id="D1z5Sd_cmgpTsEMFyd4e-6" value="" style="shape=mxgraph.cisco.servers.fileserver;sketch=0;html=1;pointerEvents=1;dashed=0;fillColor=#036897;strokeColor=#ffffff;strokeWidth=2;verticalLabelPosition=bottom;verticalAlign=top;align=center;outlineConnect=0;" parent="1" vertex="1">
          <mxGeometry x="-366.5" y="-162.75" width="43" height="62" as="geometry" />
        </mxCell>
        <mxCell id="D1z5Sd_cmgpTsEMFyd4e-7" value="" style="shape=mxgraph.cisco.servers.fileserver;sketch=0;html=1;pointerEvents=1;dashed=0;fillColor=#036897;strokeColor=#ffffff;strokeWidth=2;verticalLabelPosition=bottom;verticalAlign=top;align=center;outlineConnect=0;" parent="1" vertex="1">
          <mxGeometry x="-283" y="-156.75" width="43" height="62" as="geometry" />
        </mxCell>
        <mxCell id="D1z5Sd_cmgpTsEMFyd4e-8" value="" style="shape=mxgraph.cisco.servers.fileserver;sketch=0;html=1;pointerEvents=1;dashed=0;fillColor=#036897;strokeColor=#ffffff;strokeWidth=2;verticalLabelPosition=bottom;verticalAlign=top;align=center;outlineConnect=0;" parent="1" vertex="1">
          <mxGeometry x="-197" y="-162.75" width="43" height="62" as="geometry" />
        </mxCell>
        <mxCell id="D1z5Sd_cmgpTsEMFyd4e-9" value="" style="shape=mxgraph.cisco.servers.fileserver;sketch=0;html=1;pointerEvents=1;dashed=0;fillColor=#036897;strokeColor=#ffffff;strokeWidth=2;verticalLabelPosition=bottom;verticalAlign=top;align=center;outlineConnect=0;" parent="1" vertex="1">
          <mxGeometry x="-95" y="-162.75" width="43" height="62" as="geometry" />
        </mxCell>
        <mxCell id="D1z5Sd_cmgpTsEMFyd4e-11" value="" style="shape=mxgraph.cisco.storage.cloud;sketch=0;html=1;pointerEvents=1;dashed=0;fillColor=#036897;strokeColor=#ffffff;strokeWidth=2;verticalLabelPosition=bottom;verticalAlign=top;align=center;outlineConnect=0;" parent="1" vertex="1">
          <mxGeometry x="763.5" y="-238.75" width="186" height="106" as="geometry" />
        </mxCell>
        <mxCell id="D1z5Sd_cmgpTsEMFyd4e-17" value="E-Mail&lt;div&gt;471&lt;/div&gt;" style="text;html=1;align=center;verticalAlign=middle;whiteSpace=wrap;rounded=0;" parent="1" vertex="1">
          <mxGeometry x="-412.5" y="-322.75" width="60" height="30" as="geometry" />
        </mxCell>
        <mxCell id="D1z5Sd_cmgpTsEMFyd4e-18" value="VOIP/IM&lt;div&gt;237&lt;/div&gt;" style="text;html=1;align=center;verticalAlign=middle;whiteSpace=wrap;rounded=0;" parent="1" vertex="1">
          <mxGeometry x="-332" y="-322.75" width="60" height="30" as="geometry" />
        </mxCell>
        <mxCell id="D1z5Sd_cmgpTsEMFyd4e-19" value="General Internet&lt;div&gt;277&lt;/div&gt;" style="text;html=1;align=center;verticalAlign=middle;whiteSpace=wrap;rounded=0;" parent="1" vertex="1">
          <mxGeometry x="365.5" y="-212.75" width="92" height="30" as="geometry" />
        </mxCell>
        <mxCell id="D1z5Sd_cmgpTsEMFyd4e-23" value="Video Conference&lt;div&gt;310&lt;/div&gt;" style="text;html=1;align=center;verticalAlign=middle;whiteSpace=wrap;rounded=0;" parent="1" vertex="1">
          <mxGeometry x="-271.25" y="-322.75" width="105.5" height="30" as="geometry" />
        </mxCell>
        <mxCell id="D1z5Sd_cmgpTsEMFyd4e-24" value="VM Host 1&lt;div&gt;1593&lt;/div&gt;" style="text;html=1;align=center;verticalAlign=middle;whiteSpace=wrap;rounded=0;" parent="1" vertex="1">
          <mxGeometry x="-183.5" y="-322.75" width="105.5" height="30" as="geometry" />
        </mxCell>
        <mxCell id="D1z5Sd_cmgpTsEMFyd4e-25" value="VM Host 2&lt;div&gt;1092&lt;/div&gt;" style="text;html=1;align=center;verticalAlign=middle;whiteSpace=wrap;rounded=0;" parent="1" vertex="1">
          <mxGeometry x="-94.25" y="-322.75" width="105.5" height="30" as="geometry" />
        </mxCell>
        <mxCell id="D1z5Sd_cmgpTsEMFyd4e-26" value="File Server&lt;div&gt;10245&lt;/div&gt;" style="text;html=1;align=center;verticalAlign=middle;whiteSpace=wrap;rounded=0;" parent="1" vertex="1">
          <mxGeometry x="-134.62" y="-77.25" width="122.25" height="30" as="geometry" />
        </mxCell>
        <mxCell id="D1z5Sd_cmgpTsEMFyd4e-27" value="Application Server 1&lt;div&gt;1639&lt;/div&gt;" style="text;html=1;align=center;verticalAlign=middle;whiteSpace=wrap;rounded=0;" parent="1" vertex="1">
          <mxGeometry x="-445.75" y="-100.75" width="122.25" height="30" as="geometry" />
        </mxCell>
        <mxCell id="D1z5Sd_cmgpTsEMFyd4e-28" value="Application Server 2&lt;div&gt;1536&lt;/div&gt;" style="text;html=1;align=center;verticalAlign=middle;whiteSpace=wrap;rounded=0;" parent="1" vertex="1">
          <mxGeometry x="-332" y="-72.75" width="122.25" height="30" as="geometry" />
        </mxCell>
        <mxCell id="D1z5Sd_cmgpTsEMFyd4e-29" value="File Server&lt;div&gt;7800&lt;/div&gt;" style="text;html=1;align=center;verticalAlign=middle;whiteSpace=wrap;rounded=0;" parent="1" vertex="1">
          <mxGeometry x="-240" y="-61.25" width="122.25" height="30" as="geometry" />
        </mxCell>
        <mxCell id="D1z5Sd_cmgpTsEMFyd4e-30" value="" style="endArrow=none;html=1;rounded=0;" parent="1" edge="1">
          <mxGeometry width="50" height="50" relative="1" as="geometry">
            <mxPoint x="-383" y="-182.75" as="sourcePoint" />
            <mxPoint x="217" y="-182.75" as="targetPoint" />
          </mxGeometry>
        </mxCell>
        <mxCell id="D1z5Sd_cmgpTsEMFyd4e-33" value="" style="endArrow=none;html=1;rounded=0;entryX=0.5;entryY=1;entryDx=0;entryDy=0;entryPerimeter=0;" parent="1" target="D1z5Sd_cmgpTsEMFyd4e-5" edge="1">
          <mxGeometry width="50" height="50" relative="1" as="geometry">
            <mxPoint x="-382" y="-182.75" as="sourcePoint" />
            <mxPoint x="-263" y="-202.75" as="targetPoint" />
          </mxGeometry>
        </mxCell>
        <mxCell id="D1z5Sd_cmgpTsEMFyd4e-35" value="" style="endArrow=none;html=1;rounded=0;exitX=0.5;exitY=0;exitDx=0;exitDy=0;exitPerimeter=0;" parent="1" source="D1z5Sd_cmgpTsEMFyd4e-6" edge="1">
          <mxGeometry width="50" height="50" relative="1" as="geometry">
            <mxPoint x="-372" y="-172.75" as="sourcePoint" />
            <mxPoint x="-345" y="-182.75" as="targetPoint" />
          </mxGeometry>
        </mxCell>
        <mxCell id="D1z5Sd_cmgpTsEMFyd4e-36" value="" style="endArrow=none;html=1;rounded=0;entryX=0.5;entryY=1;entryDx=0;entryDy=0;entryPerimeter=0;" parent="1" target="D1z5Sd_cmgpTsEMFyd4e-1" edge="1">
          <mxGeometry width="50" height="50" relative="1" as="geometry">
            <mxPoint x="-302" y="-182.75" as="sourcePoint" />
            <mxPoint x="-362" y="-180.75" as="targetPoint" />
          </mxGeometry>
        </mxCell>
        <mxCell id="D1z5Sd_cmgpTsEMFyd4e-37" value="" style="endArrow=none;html=1;rounded=0;" parent="1" target="D1z5Sd_cmgpTsEMFyd4e-7" edge="1">
          <mxGeometry width="50" height="50" relative="1" as="geometry">
            <mxPoint x="-263" y="-182.75" as="sourcePoint" />
            <mxPoint x="-352" y="-170.75" as="targetPoint" />
          </mxGeometry>
        </mxCell>
        <mxCell id="D1z5Sd_cmgpTsEMFyd4e-38" value="" style="endArrow=none;html=1;rounded=0;entryX=0.5;entryY=1;entryDx=0;entryDy=0;entryPerimeter=0;" parent="1" target="D1z5Sd_cmgpTsEMFyd4e-2" edge="1">
          <mxGeometry width="50" height="50" relative="1" as="geometry">
            <mxPoint x="-219" y="-182.75" as="sourcePoint" />
            <mxPoint x="-342" y="-160.75" as="targetPoint" />
          </mxGeometry>
        </mxCell>
        <mxCell id="D1z5Sd_cmgpTsEMFyd4e-39" value="" style="endArrow=none;html=1;rounded=0;exitX=0.5;exitY=0;exitDx=0;exitDy=0;exitPerimeter=0;" parent="1" source="D1z5Sd_cmgpTsEMFyd4e-8" edge="1">
          <mxGeometry width="50" height="50" relative="1" as="geometry">
            <mxPoint x="-209" y="-172.75" as="sourcePoint" />
            <mxPoint x="-175" y="-182.75" as="targetPoint" />
          </mxGeometry>
        </mxCell>
        <mxCell id="D1z5Sd_cmgpTsEMFyd4e-40" value="" style="endArrow=none;html=1;rounded=0;exitX=0.5;exitY=1;exitDx=0;exitDy=0;exitPerimeter=0;" parent="1" source="D1z5Sd_cmgpTsEMFyd4e-3" edge="1">
          <mxGeometry width="50" height="50" relative="1" as="geometry">
            <mxPoint x="-199" y="-162.75" as="sourcePoint" />
            <mxPoint x="-133" y="-182.75" as="targetPoint" />
          </mxGeometry>
        </mxCell>
        <mxCell id="D1z5Sd_cmgpTsEMFyd4e-41" value="" style="endArrow=none;html=1;rounded=0;entryX=0.5;entryY=0;entryDx=0;entryDy=0;entryPerimeter=0;" parent="1" target="D1z5Sd_cmgpTsEMFyd4e-9" edge="1">
          <mxGeometry width="50" height="50" relative="1" as="geometry">
            <mxPoint x="-73" y="-182.75" as="sourcePoint" />
            <mxPoint x="-189" y="-170.75" as="targetPoint" />
          </mxGeometry>
        </mxCell>
        <mxCell id="D1z5Sd_cmgpTsEMFyd4e-42" value="" style="endArrow=none;html=1;rounded=0;" parent="1" target="D1z5Sd_cmgpTsEMFyd4e-4" edge="1">
          <mxGeometry width="50" height="50" relative="1" as="geometry">
            <mxPoint x="-43" y="-182.75" as="sourcePoint" />
            <mxPoint x="-179" y="-160.75" as="targetPoint" />
            <Array as="points" />
          </mxGeometry>
        </mxCell>
        <mxCell id="D4x98raayPRGnfYNlxmL-1" value="Access Switch&lt;div&gt;(A_)&lt;/div&gt;" style="text;html=1;align=center;verticalAlign=middle;whiteSpace=wrap;rounded=0;" parent="1" vertex="1">
          <mxGeometry x="-840" y="275" width="60" height="30" as="geometry" />
        </mxCell>
        <mxCell id="D4x98raayPRGnfYNlxmL-6" value="Distribution Switch&lt;div&gt;D_&lt;/div&gt;" style="text;html=1;align=center;verticalAlign=middle;whiteSpace=wrap;rounded=0;" parent="1" vertex="1">
          <mxGeometry x="-485" y="20" width="105" height="30" as="geometry" />
        </mxCell>
        <mxCell id="D4x98raayPRGnfYNlxmL-7" value="&lt;font style=&quot;font-size: 20px;&quot;&gt;&lt;b&gt;D1&lt;/b&gt;&lt;/font&gt;" style="text;html=1;align=center;verticalAlign=middle;whiteSpace=wrap;rounded=0;" parent="1" vertex="1">
          <mxGeometry x="-320" y="70" width="60" height="30" as="geometry" />
        </mxCell>
        <mxCell id="D4x98raayPRGnfYNlxmL-8" value="&lt;b&gt;&lt;font style=&quot;font-size: 20px;&quot;&gt;D2&lt;/font&gt;&lt;/b&gt;" style="text;html=1;align=center;verticalAlign=middle;whiteSpace=wrap;rounded=0;" parent="1" vertex="1">
          <mxGeometry x="756" y="60" width="60" height="30" as="geometry" />
        </mxCell>
        <mxCell id="wjn0DkEPhm9HMvxcZybD-29" style="edgeStyle=orthogonalEdgeStyle;rounded=0;orthogonalLoop=1;jettySize=auto;html=1;" parent="1" source="D4x98raayPRGnfYNlxmL-10" target="wjn0DkEPhm9HMvxcZybD-24" edge="1">
          <mxGeometry relative="1" as="geometry" />
        </mxCell>
        <mxCell id="D4x98raayPRGnfYNlxmL-10" value="" style="shape=mxgraph.cisco.routers.wireless_router;html=1;pointerEvents=1;dashed=0;fillColor=#036897;strokeColor=#ffffff;strokeWidth=2;verticalLabelPosition=bottom;verticalAlign=top;align=center;outlineConnect=0;" parent="1" vertex="1">
          <mxGeometry x="1570" y="-124.25" width="78" height="77" as="geometry" />
        </mxCell>
        <mxCell id="wjn0DkEPhm9HMvxcZybD-28" style="edgeStyle=orthogonalEdgeStyle;rounded=0;orthogonalLoop=1;jettySize=auto;html=1;" parent="1" source="D4x98raayPRGnfYNlxmL-14" target="wjn0DkEPhm9HMvxcZybD-23" edge="1">
          <mxGeometry relative="1" as="geometry" />
        </mxCell>
        <mxCell id="D4x98raayPRGnfYNlxmL-14" value="" style="shape=mxgraph.cisco.routers.wireless_router;html=1;pointerEvents=1;dashed=0;fillColor=#036897;strokeColor=#ffffff;strokeWidth=2;verticalLabelPosition=bottom;verticalAlign=top;align=center;outlineConnect=0;" parent="1" vertex="1">
          <mxGeometry x="1570" y="-219.25" width="78" height="77" as="geometry" />
        </mxCell>
        <mxCell id="D4x98raayPRGnfYNlxmL-15" value="" style="shape=mxgraph.cisco.routers.wireless_router;html=1;pointerEvents=1;dashed=0;fillColor=#036897;strokeColor=#ffffff;strokeWidth=2;verticalLabelPosition=bottom;verticalAlign=top;align=center;outlineConnect=0;" parent="1" vertex="1">
          <mxGeometry x="1570" y="-27" width="78" height="77" as="geometry" />
        </mxCell>
        <mxCell id="D4x98raayPRGnfYNlxmL-16" value="" style="shape=mxgraph.cisco.routers.wireless_router;html=1;pointerEvents=1;dashed=0;fillColor=#036897;strokeColor=#ffffff;strokeWidth=2;verticalLabelPosition=bottom;verticalAlign=top;align=center;outlineConnect=0;" parent="1" vertex="1">
          <mxGeometry x="1570" y="86.5" width="78" height="77" as="geometry" />
        </mxCell>
        <mxCell id="D4x98raayPRGnfYNlxmL-18" value="OPTIONAL:&lt;div&gt;Lightweight Access Point&lt;/div&gt;&lt;div&gt;(1 Per Floor)&lt;/div&gt;" style="text;html=1;align=center;verticalAlign=middle;whiteSpace=wrap;rounded=0;" parent="1" vertex="1">
          <mxGeometry x="1534.5" y="-370" width="149" height="30" as="geometry" />
        </mxCell>
        <mxCell id="wjn0DkEPhm9HMvxcZybD-27" style="edgeStyle=orthogonalEdgeStyle;rounded=0;orthogonalLoop=1;jettySize=auto;html=1;" parent="1" source="D4x98raayPRGnfYNlxmL-27" target="wjn0DkEPhm9HMvxcZybD-22" edge="1">
          <mxGeometry relative="1" as="geometry" />
        </mxCell>
        <mxCell id="D4x98raayPRGnfYNlxmL-27" value="" style="shape=mxgraph.cisco.routers.wireless_router;html=1;pointerEvents=1;dashed=0;fillColor=#036897;strokeColor=#ffffff;strokeWidth=2;verticalLabelPosition=bottom;verticalAlign=top;align=center;outlineConnect=0;" parent="1" vertex="1">
          <mxGeometry x="1570" y="-296.25" width="78" height="77" as="geometry" />
        </mxCell>
        <mxCell id="D4x98raayPRGnfYNlxmL-29" value="LAP1" style="text;html=1;align=center;verticalAlign=middle;whiteSpace=wrap;rounded=0;" parent="1" vertex="1">
          <mxGeometry x="1640" y="-259.75" width="60" height="30" as="geometry" />
        </mxCell>
        <mxCell id="D4x98raayPRGnfYNlxmL-30" value="LAP2" style="text;html=1;align=center;verticalAlign=middle;whiteSpace=wrap;rounded=0;" parent="1" vertex="1">
          <mxGeometry x="1640" y="-192" width="60" height="30" as="geometry" />
        </mxCell>
        <mxCell id="D4x98raayPRGnfYNlxmL-31" value="LAP3" style="text;html=1;align=center;verticalAlign=middle;whiteSpace=wrap;rounded=0;" parent="1" vertex="1">
          <mxGeometry x="1640" y="-116" width="60" height="30" as="geometry" />
        </mxCell>
        <mxCell id="D4x98raayPRGnfYNlxmL-32" value="LAP4" style="text;html=1;align=center;verticalAlign=middle;whiteSpace=wrap;rounded=0;" parent="1" vertex="1">
          <mxGeometry x="1640" y="-25" width="60" height="30" as="geometry" />
        </mxCell>
        <mxCell id="D4x98raayPRGnfYNlxmL-33" value="LAP5" style="text;html=1;align=center;verticalAlign=middle;whiteSpace=wrap;rounded=0;" parent="1" vertex="1">
          <mxGeometry x="1640" y="61" width="60" height="30" as="geometry" />
        </mxCell>
        <mxCell id="D4x98raayPRGnfYNlxmL-36" value="&lt;div&gt;&lt;span style=&quot;font-size: 12px;&quot;&gt;Network ID: 172.20.112.0&lt;/span&gt;&lt;/div&gt;&lt;div&gt;&lt;span style=&quot;font-size: 12px;&quot;&gt;First Host: 172.20.112.1&lt;/span&gt;&lt;/div&gt;&lt;div&gt;&lt;span style=&quot;font-size: 12px;&quot;&gt;Last Host: 172.20.127.255&lt;/span&gt;&lt;/div&gt;" style="text;html=1;align=center;verticalAlign=middle;whiteSpace=wrap;rounded=0;" parent="1" vertex="1">
          <mxGeometry x="-655" y="550" width="150" height="60" as="geometry" />
        </mxCell>
        <mxCell id="D4x98raayPRGnfYNlxmL-37" value="&lt;div&gt;&lt;span style=&quot;font-size: 12px;&quot;&gt;Network ID: 172.20.128.0&lt;/span&gt;&lt;/div&gt;&lt;div&gt;&lt;span style=&quot;font-size: 12px;&quot;&gt;First Host: 172.20.128.1&lt;/span&gt;&lt;/div&gt;&lt;div&gt;&lt;span style=&quot;font-size: 12px;&quot;&gt;Last Host: 172.20.143.255&lt;/span&gt;&lt;/div&gt;" style="text;html=1;align=center;verticalAlign=middle;whiteSpace=wrap;rounded=0;" parent="1" vertex="1">
          <mxGeometry x="-421" y="590" width="98" height="50" as="geometry" />
        </mxCell>
        <mxCell id="D4x98raayPRGnfYNlxmL-38" value="&lt;div&gt;&lt;span style=&quot;font-size: 12px;&quot;&gt;Network ID: 172.20.32.0&lt;/span&gt;&lt;/div&gt;&lt;div&gt;&lt;span style=&quot;font-size: 12px;&quot;&gt;First Host: 172.20.32.1&lt;/span&gt;&lt;/div&gt;&lt;div&gt;&lt;span style=&quot;font-size: 12px;&quot;&gt;Last Host: 172.20.47.255&lt;/span&gt;&lt;/div&gt;" style="text;html=1;align=center;verticalAlign=middle;whiteSpace=wrap;rounded=0;" parent="1" vertex="1">
          <mxGeometry x="-250.5" y="566" width="160" height="49" as="geometry" />
        </mxCell>
        <mxCell id="D4x98raayPRGnfYNlxmL-39" value="&lt;div&gt;&lt;span style=&quot;font-size: 12px;&quot;&gt;Network ID: 172.20.96.0&lt;/span&gt;&lt;/div&gt;&lt;div&gt;&lt;span style=&quot;font-size: 12px;&quot;&gt;First Host: 172.20.96.1&lt;/span&gt;&lt;/div&gt;&lt;div&gt;&lt;span style=&quot;font-size: 12px;&quot;&gt;Last Host: 172.20.111.255&lt;/span&gt;&lt;/div&gt;" style="text;html=1;align=center;verticalAlign=middle;whiteSpace=wrap;rounded=0;" parent="1" vertex="1">
          <mxGeometry x="-25" y="566" width="110" height="50" as="geometry" />
        </mxCell>
        <mxCell id="D4x98raayPRGnfYNlxmL-40" value="&lt;div&gt;&lt;span style=&quot;font-size: 12px;&quot;&gt;Network ID: 172.20.80.0&lt;/span&gt;&lt;/div&gt;&lt;div&gt;&lt;span style=&quot;font-size: 12px;&quot;&gt;First Host: 172.20.80.1&lt;/span&gt;&lt;/div&gt;&lt;div&gt;&lt;span style=&quot;font-size: 12px;&quot;&gt;Last Host: 172.20.95.255&lt;/span&gt;&lt;/div&gt;" style="text;html=1;align=center;verticalAlign=middle;whiteSpace=wrap;rounded=0;" parent="1" vertex="1">
          <mxGeometry x="104" y="558.5" width="110" height="65" as="geometry" />
        </mxCell>
        <mxCell id="D4x98raayPRGnfYNlxmL-41" value="&lt;div&gt;&lt;span style=&quot;font-size: 12px;&quot;&gt;Network ID: 172.20.64.0&lt;/span&gt;&lt;/div&gt;&lt;div&gt;&lt;span style=&quot;font-size: 12px;&quot;&gt;First Host: 172.20.64.1&lt;/span&gt;&lt;/div&gt;&lt;div&gt;&lt;span style=&quot;font-size: 12px;&quot;&gt;Last Host: 172.20.79.255&lt;/span&gt;&lt;/div&gt;" style="text;html=1;align=center;verticalAlign=middle;whiteSpace=wrap;rounded=0;" parent="1" vertex="1">
          <mxGeometry x="390" y="566" width="159" height="65" as="geometry" />
        </mxCell>
        <mxCell id="D4x98raayPRGnfYNlxmL-42" value="&lt;div&gt;&lt;span style=&quot;font-size: 12px;&quot;&gt;Network ID: 172.20.48.0&lt;/span&gt;&lt;/div&gt;&lt;div&gt;&lt;span style=&quot;font-size: 12px;&quot;&gt;First Host: 172.20.48.1&lt;/span&gt;&lt;/div&gt;&lt;div&gt;&lt;span style=&quot;font-size: 12px;&quot;&gt;Last Host: 172.20.63.255&lt;/span&gt;&lt;/div&gt;" style="text;html=1;align=center;verticalAlign=middle;whiteSpace=wrap;rounded=0;" parent="1" vertex="1">
          <mxGeometry x="600" y="566" width="115.5" height="94" as="geometry" />
        </mxCell>
        <mxCell id="D4x98raayPRGnfYNlxmL-43" value="&lt;div&gt;&lt;span style=&quot;font-size: 12px;&quot;&gt;Network ID: 172.20.16.0&lt;/span&gt;&lt;/div&gt;&lt;div&gt;&lt;span style=&quot;font-size: 12px;&quot;&gt;First Host: 172.20.16.1&lt;/span&gt;&lt;/div&gt;&lt;div&gt;&lt;span style=&quot;font-size: 12px;&quot;&gt;Last Host: 172.20.31.255&lt;/span&gt;&lt;/div&gt;" style="text;html=1;align=center;verticalAlign=middle;whiteSpace=wrap;rounded=0;" parent="1" vertex="1">
          <mxGeometry x="728" y="590" width="122.5" height="60" as="geometry" />
        </mxCell>
        <mxCell id="D4x98raayPRGnfYNlxmL-44" value="&lt;div&gt;&lt;span style=&quot;font-size: 12px;&quot;&gt;Network ID: 172.20.0.0&lt;/span&gt;&lt;/div&gt;&lt;div&gt;&lt;span style=&quot;font-size: 12px;&quot;&gt;First Host: 172.20.0.1&lt;/span&gt;&lt;/div&gt;&lt;div&gt;&lt;span style=&quot;font-size: 12px;&quot;&gt;Last Host: 172.20.15.255&lt;/span&gt;&lt;/div&gt;" style="text;html=1;align=center;verticalAlign=middle;whiteSpace=wrap;rounded=0;" parent="1" vertex="1">
          <mxGeometry x="863" y="572.5" width="78" height="95" as="geometry" />
        </mxCell>
        <mxCell id="D4x98raayPRGnfYNlxmL-46" value="&lt;div&gt;&lt;span style=&quot;font-size: 12px;&quot;&gt;Network ID: 172.20.144.0&lt;/span&gt;&lt;/div&gt;&lt;div&gt;&lt;span style=&quot;font-size: 12px;&quot;&gt;First Host: 172.20.144.1&lt;/span&gt;&lt;/div&gt;&lt;div&gt;&lt;span style=&quot;font-size: 12px;&quot;&gt;Last Host: 172.20.159.255&lt;/span&gt;&lt;/div&gt;" style="text;html=1;align=center;verticalAlign=middle;whiteSpace=wrap;rounded=0;" parent="1" vertex="1">
          <mxGeometry x="1024.5" y="583.5" width="160" height="47.5" as="geometry" />
        </mxCell>
        <mxCell id="D4x98raayPRGnfYNlxmL-47" value="&lt;div&gt;&lt;span style=&quot;font-size: 12px;&quot;&gt;Network ID: 172.20.160.0&lt;/span&gt;&lt;/div&gt;&lt;div&gt;&lt;span style=&quot;font-size: 12px;&quot;&gt;First Host: 172.20.160.1&lt;/span&gt;&lt;/div&gt;&lt;div&gt;&lt;span style=&quot;font-size: 12px;&quot;&gt;Last Host: 172.20.175.255&lt;/span&gt;&lt;/div&gt;" style="text;html=1;align=center;verticalAlign=middle;whiteSpace=wrap;rounded=0;" parent="1" vertex="1">
          <mxGeometry x="1230" y="572.5" width="99" height="106" as="geometry" />
        </mxCell>
        <mxCell id="D4x98raayPRGnfYNlxmL-48" value="&lt;div&gt;&lt;span style=&quot;font-size: 12px;&quot;&gt;Network ID: 172.20.176.0&lt;/span&gt;&lt;/div&gt;&lt;div&gt;&lt;span style=&quot;font-size: 12px;&quot;&gt;First Host: 172.20.176.1&lt;/span&gt;&lt;/div&gt;&lt;div&gt;&lt;span style=&quot;font-size: 12px;&quot;&gt;Last Host: 172.20.191.255&lt;/span&gt;&lt;/div&gt;" style="text;html=1;align=center;verticalAlign=middle;whiteSpace=wrap;rounded=0;" parent="1" vertex="1">
          <mxGeometry x="1353.5" y="569.5" width="104" height="98" as="geometry" />
        </mxCell>
        <mxCell id="D4x98raayPRGnfYNlxmL-49" value="OPTIONAL:&lt;div&gt;Subnetting&lt;/div&gt;&lt;div&gt;(Subnets in order of floor number)&lt;/div&gt;" style="text;html=1;align=center;verticalAlign=middle;whiteSpace=wrap;rounded=0;" parent="1" vertex="1">
          <mxGeometry x="-840" y="569.5" width="110" height="30" as="geometry" />
        </mxCell>
        <mxCell id="D4x98raayPRGnfYNlxmL-64" value="Core Switch&lt;div&gt;(C_)&lt;/div&gt;" style="text;html=1;align=center;verticalAlign=middle;whiteSpace=wrap;rounded=0;" parent="1" vertex="1">
          <mxGeometry x="197" y="-312.75" width="105" height="30" as="geometry" />
        </mxCell>
        <mxCell id="D4x98raayPRGnfYNlxmL-65" value="&lt;font style=&quot;font-size: 20px;&quot;&gt;&lt;b&gt;C1&lt;/b&gt;&lt;/font&gt;" style="text;html=1;align=center;verticalAlign=middle;whiteSpace=wrap;rounded=0;" parent="1" vertex="1">
          <mxGeometry x="197" y="-246.75" width="60" height="30" as="geometry" />
        </mxCell>
        <mxCell id="D4x98raayPRGnfYNlxmL-66" value="Enterprise Servers" style="text;html=1;align=center;verticalAlign=middle;whiteSpace=wrap;rounded=0;" parent="1" vertex="1">
          <mxGeometry x="-587" y="-200.75" width="119" height="30" as="geometry" />
        </mxCell>
        <mxCell id="D4x98raayPRGnfYNlxmL-68" value="Open Internet" style="text;html=1;align=center;verticalAlign=middle;whiteSpace=wrap;rounded=0;" parent="1" vertex="1">
          <mxGeometry x="816.5" y="-271.75" width="80" height="30" as="geometry" />
        </mxCell>
        <mxCell id="HvBumtQWwmfjn8_mG1BW-1" value="" style="shape=mxgraph.cisco.routers.router;html=1;pointerEvents=1;dashed=0;fillColor=#036897;strokeColor=#ffffff;strokeWidth=2;verticalLabelPosition=bottom;verticalAlign=top;align=center;outlineConnect=0;" parent="1" vertex="1">
          <mxGeometry x="487" y="-209.75" width="78" height="53" as="geometry" />
        </mxCell>
        <mxCell id="HvBumtQWwmfjn8_mG1BW-2" style="edgeStyle=none;curved=1;rounded=0;orthogonalLoop=1;jettySize=auto;html=1;entryX=1;entryY=0.5;entryDx=0;entryDy=0;entryPerimeter=0;fontSize=12;startSize=8;endSize=8;" parent="1" source="HvBumtQWwmfjn8_mG1BW-1" edge="1">
          <mxGeometry relative="1" as="geometry">
            <mxPoint x="293" y="-183.25" as="targetPoint" />
          </mxGeometry>
        </mxCell>
        <mxCell id="HvBumtQWwmfjn8_mG1BW-3" style="edgeStyle=none;curved=1;rounded=0;orthogonalLoop=1;jettySize=auto;html=1;entryX=1;entryY=0.5;entryDx=0;entryDy=0;entryPerimeter=0;fontSize=12;startSize=8;endSize=8;" parent="1" source="D1z5Sd_cmgpTsEMFyd4e-11" target="HvBumtQWwmfjn8_mG1BW-1" edge="1">
          <mxGeometry relative="1" as="geometry" />
        </mxCell>
        <mxCell id="HvBumtQWwmfjn8_mG1BW-4" value="Firewall" style="text;html=1;align=center;verticalAlign=middle;whiteSpace=wrap;rounded=0;fontSize=16;" parent="1" vertex="1">
          <mxGeometry x="478" y="-262.75" width="128" height="30" as="geometry" />
        </mxCell>
        <mxCell id="wjn0DkEPhm9HMvxcZybD-1" value="&lt;font style=&quot;font-size: 19px;&quot;&gt;&lt;b&gt;F1&lt;/b&gt;&lt;/font&gt;" style="text;html=1;align=center;verticalAlign=middle;whiteSpace=wrap;rounded=0;" parent="1" vertex="1">
          <mxGeometry x="493.5" y="-144.5" width="60" height="30" as="geometry" />
        </mxCell>
        <mxCell id="wjn0DkEPhm9HMvxcZybD-2" value="&lt;b&gt;&lt;font style=&quot;font-size: 18px;&quot;&gt;A1&lt;/font&gt;&lt;/b&gt;" style="text;html=1;align=center;verticalAlign=middle;whiteSpace=wrap;rounded=0;" parent="1" vertex="1">
          <mxGeometry x="920" y="270" width="60" height="30" as="geometry" />
        </mxCell>
        <mxCell id="wjn0DkEPhm9HMvxcZybD-3" value="&lt;b&gt;&lt;font style=&quot;font-size: 18px;&quot;&gt;A2&lt;/font&gt;&lt;/b&gt;" style="text;html=1;align=center;verticalAlign=middle;whiteSpace=wrap;rounded=0;" parent="1" vertex="1">
          <mxGeometry x="796.5" y="275" width="60" height="30" as="geometry" />
        </mxCell>
        <mxCell id="wjn0DkEPhm9HMvxcZybD-4" value="&lt;b&gt;&lt;font style=&quot;font-size: 18px;&quot;&gt;A3&lt;/font&gt;&lt;/b&gt;" style="text;html=1;align=center;verticalAlign=middle;whiteSpace=wrap;rounded=0;" parent="1" vertex="1">
          <mxGeometry x="-214" y="270" width="60" height="30" as="geometry" />
        </mxCell>
        <mxCell id="wjn0DkEPhm9HMvxcZybD-5" value="&lt;b&gt;&lt;font style=&quot;font-size: 18px;&quot;&gt;A4&lt;/font&gt;&lt;/b&gt;" style="text;html=1;align=center;verticalAlign=middle;whiteSpace=wrap;rounded=0;" parent="1" vertex="1">
          <mxGeometry x="-90.5" y="270" width="60" height="30" as="geometry" />
        </mxCell>
        <mxCell id="wjn0DkEPhm9HMvxcZybD-6" value="&lt;b&gt;&lt;font style=&quot;font-size: 18px;&quot;&gt;A5&lt;/font&gt;&lt;/b&gt;" style="text;html=1;align=center;verticalAlign=middle;whiteSpace=wrap;rounded=0;" parent="1" vertex="1">
          <mxGeometry x="668" y="270" width="60" height="30" as="geometry" />
        </mxCell>
        <mxCell id="wjn0DkEPhm9HMvxcZybD-7" value="&lt;b&gt;&lt;font style=&quot;font-size: 18px;&quot;&gt;A6&lt;/font&gt;&lt;/b&gt;" style="text;html=1;align=center;verticalAlign=middle;whiteSpace=wrap;rounded=0;" parent="1" vertex="1">
          <mxGeometry x="397.5" y="270" width="60" height="30" as="geometry" />
        </mxCell>
        <mxCell id="wjn0DkEPhm9HMvxcZybD-8" value="&lt;b&gt;&lt;font style=&quot;font-size: 18px;&quot;&gt;A7&lt;/font&gt;&lt;/b&gt;" style="text;html=1;align=center;verticalAlign=middle;whiteSpace=wrap;rounded=0;" parent="1" vertex="1">
          <mxGeometry x="523" y="270" width="60" height="30" as="geometry" />
        </mxCell>
        <mxCell id="wjn0DkEPhm9HMvxcZybD-9" value="&lt;b&gt;&lt;font style=&quot;font-size: 18px;&quot;&gt;A8&lt;/font&gt;&lt;/b&gt;" style="text;html=1;align=center;verticalAlign=middle;whiteSpace=wrap;rounded=0;" parent="1" vertex="1">
          <mxGeometry x="180" y="265" width="60" height="30" as="geometry" />
        </mxCell>
        <mxCell id="wjn0DkEPhm9HMvxcZybD-10" value="&lt;b&gt;&lt;font style=&quot;font-size: 18px;&quot;&gt;A9&lt;/font&gt;&lt;/b&gt;" style="text;html=1;align=center;verticalAlign=middle;whiteSpace=wrap;rounded=0;" parent="1" vertex="1">
          <mxGeometry x="25" y="260" width="60" height="30" as="geometry" />
        </mxCell>
        <mxCell id="wjn0DkEPhm9HMvxcZybD-12" value="&lt;b&gt;&lt;font style=&quot;font-size: 18px;&quot;&gt;A10&lt;/font&gt;&lt;/b&gt;" style="text;html=1;align=center;verticalAlign=middle;whiteSpace=wrap;rounded=0;" parent="1" vertex="1">
          <mxGeometry x="-630" y="280" width="60" height="30" as="geometry" />
        </mxCell>
        <mxCell id="wjn0DkEPhm9HMvxcZybD-13" value="&lt;b&gt;&lt;font style=&quot;font-size: 18px;&quot;&gt;A11&lt;/font&gt;&lt;/b&gt;" style="text;html=1;align=center;verticalAlign=middle;whiteSpace=wrap;rounded=0;" parent="1" vertex="1">
          <mxGeometry x="-505" y="280" width="60" height="30" as="geometry" />
        </mxCell>
        <mxCell id="wjn0DkEPhm9HMvxcZybD-14" value="&lt;b&gt;&lt;font style=&quot;font-size: 18px;&quot;&gt;A12&lt;/font&gt;&lt;/b&gt;" style="text;html=1;align=center;verticalAlign=middle;whiteSpace=wrap;rounded=0;" parent="1" vertex="1">
          <mxGeometry x="-366.5" y="280" width="60" height="30" as="geometry" />
        </mxCell>
        <mxCell id="wjn0DkEPhm9HMvxcZybD-15" value="&lt;b&gt;&lt;font style=&quot;font-size: 18px;&quot;&gt;A13&lt;/font&gt;&lt;/b&gt;" style="text;html=1;align=center;verticalAlign=middle;whiteSpace=wrap;rounded=0;" parent="1" vertex="1">
          <mxGeometry x="1055" y="265" width="60" height="30" as="geometry" />
        </mxCell>
        <mxCell id="wjn0DkEPhm9HMvxcZybD-16" value="&lt;b&gt;&lt;font style=&quot;font-size: 18px;&quot;&gt;A14&lt;/font&gt;&lt;/b&gt;" style="text;html=1;align=center;verticalAlign=middle;whiteSpace=wrap;rounded=0;" parent="1" vertex="1">
          <mxGeometry x="1170" y="275" width="60" height="30" as="geometry" />
        </mxCell>
        <mxCell id="wjn0DkEPhm9HMvxcZybD-17" value="&lt;b&gt;&lt;font style=&quot;font-size: 18px;&quot;&gt;A15&lt;/font&gt;&lt;/b&gt;" style="text;html=1;align=center;verticalAlign=middle;whiteSpace=wrap;rounded=0;" parent="1" vertex="1">
          <mxGeometry x="1300" y="275" width="60" height="30" as="geometry" />
        </mxCell>
        <mxCell id="wjn0DkEPhm9HMvxcZybD-18" value="&lt;b&gt;&lt;font style=&quot;font-size: 18px;&quot;&gt;A16&lt;/font&gt;&lt;/b&gt;" style="text;html=1;align=center;verticalAlign=middle;whiteSpace=wrap;rounded=0;" parent="1" vertex="1">
          <mxGeometry x="1420" y="275" width="60" height="30" as="geometry" />
        </mxCell>
        <mxCell id="wjn0DkEPhm9HMvxcZybD-19" value="" style="shape=mxgraph.cisco.wireless.wlan_controller;sketch=0;html=1;pointerEvents=1;dashed=0;fillColor=#036897;strokeColor=#ffffff;strokeWidth=2;verticalLabelPosition=bottom;verticalAlign=top;align=center;outlineConnect=0;" parent="1" vertex="1">
          <mxGeometry x="410" y="-98.75" width="101" height="56" as="geometry" />
        </mxCell>
        <mxCell id="wjn0DkEPhm9HMvxcZybD-20" style="edgeStyle=orthogonalEdgeStyle;rounded=0;orthogonalLoop=1;jettySize=auto;html=1;entryX=0.95;entryY=0.94;entryDx=0;entryDy=0;entryPerimeter=0;" parent="1" source="wjn0DkEPhm9HMvxcZybD-19" target="BXiqwRlGKzKQuI-ZINDh-128" edge="1">
          <mxGeometry relative="1" as="geometry" />
        </mxCell>
        <mxCell id="wjn0DkEPhm9HMvxcZybD-21" value="OPTIONAL:&lt;div&gt;Wireless Lan Controller&lt;/div&gt;&lt;div&gt;&lt;font style=&quot;font-size: 18px;&quot;&gt;&lt;b&gt;W1&lt;/b&gt;&lt;/font&gt;&lt;/div&gt;" style="text;html=1;align=center;verticalAlign=middle;whiteSpace=wrap;rounded=0;" parent="1" vertex="1">
          <mxGeometry x="511" y="-77.25" width="142" height="30" as="geometry" />
        </mxCell>
        <mxCell id="wjn0DkEPhm9HMvxcZybD-22" value="" style="shape=mxgraph.cisco.switches.workgroup_switch;sketch=0;html=1;pointerEvents=1;dashed=0;fillColor=#036897;strokeColor=#ffffff;strokeWidth=2;verticalLabelPosition=bottom;verticalAlign=top;align=center;outlineConnect=0;" parent="1" vertex="1">
          <mxGeometry x="1440" y="-282.75" width="101" height="50" as="geometry" />
        </mxCell>
        <mxCell id="wjn0DkEPhm9HMvxcZybD-36" style="edgeStyle=orthogonalEdgeStyle;rounded=0;orthogonalLoop=1;jettySize=auto;html=1;" parent="1" source="wjn0DkEPhm9HMvxcZybD-23" target="BXiqwRlGKzKQuI-ZINDh-93" edge="1">
          <mxGeometry relative="1" as="geometry">
            <Array as="points">
              <mxPoint x="1470" y="-120" />
              <mxPoint x="870" y="-120" />
            </Array>
          </mxGeometry>
        </mxCell>
        <mxCell id="wjn0DkEPhm9HMvxcZybD-23" value="" style="shape=mxgraph.cisco.switches.workgroup_switch;sketch=0;html=1;pointerEvents=1;dashed=0;fillColor=#036897;strokeColor=#ffffff;strokeWidth=2;verticalLabelPosition=bottom;verticalAlign=top;align=center;outlineConnect=0;" parent="1" vertex="1">
          <mxGeometry x="1420" y="-205.75" width="101" height="50" as="geometry" />
        </mxCell>
        <mxCell id="wjn0DkEPhm9HMvxcZybD-35" style="edgeStyle=orthogonalEdgeStyle;rounded=0;orthogonalLoop=1;jettySize=auto;html=1;" parent="1" source="wjn0DkEPhm9HMvxcZybD-24" target="BXiqwRlGKzKQuI-ZINDh-93" edge="1">
          <mxGeometry relative="1" as="geometry">
            <Array as="points">
              <mxPoint x="1490" y="-30" />
              <mxPoint x="870" y="-30" />
            </Array>
          </mxGeometry>
        </mxCell>
        <mxCell id="wjn0DkEPhm9HMvxcZybD-24" value="" style="shape=mxgraph.cisco.switches.workgroup_switch;sketch=0;html=1;pointerEvents=1;dashed=0;fillColor=#036897;strokeColor=#ffffff;strokeWidth=2;verticalLabelPosition=bottom;verticalAlign=top;align=center;outlineConnect=0;" parent="1" vertex="1">
          <mxGeometry x="1440" y="-111.25" width="101" height="50" as="geometry" />
        </mxCell>
        <mxCell id="wjn0DkEPhm9HMvxcZybD-34" style="edgeStyle=orthogonalEdgeStyle;rounded=0;orthogonalLoop=1;jettySize=auto;html=1;" parent="1" source="wjn0DkEPhm9HMvxcZybD-25" target="BXiqwRlGKzKQuI-ZINDh-93" edge="1">
          <mxGeometry relative="1" as="geometry">
            <Array as="points">
              <mxPoint x="1484" y="60" />
              <mxPoint x="870" y="60" />
            </Array>
          </mxGeometry>
        </mxCell>
        <mxCell id="wjn0DkEPhm9HMvxcZybD-25" value="" style="shape=mxgraph.cisco.switches.workgroup_switch;sketch=0;html=1;pointerEvents=1;dashed=0;fillColor=#036897;strokeColor=#ffffff;strokeWidth=2;verticalLabelPosition=bottom;verticalAlign=top;align=center;outlineConnect=0;" parent="1" vertex="1">
          <mxGeometry x="1433.5" y="-13.5" width="101" height="50" as="geometry" />
        </mxCell>
        <mxCell id="wjn0DkEPhm9HMvxcZybD-33" style="edgeStyle=orthogonalEdgeStyle;rounded=0;orthogonalLoop=1;jettySize=auto;html=1;entryX=0.953;entryY=0.043;entryDx=0;entryDy=0;entryPerimeter=0;" parent="1" source="wjn0DkEPhm9HMvxcZybD-26" target="BXiqwRlGKzKQuI-ZINDh-93" edge="1">
          <mxGeometry relative="1" as="geometry">
            <Array as="points">
              <mxPoint x="1490" y="90" />
              <mxPoint x="870" y="90" />
              <mxPoint x="870" y="102" />
            </Array>
          </mxGeometry>
        </mxCell>
        <mxCell id="wjn0DkEPhm9HMvxcZybD-26" value="" style="shape=mxgraph.cisco.switches.workgroup_switch;sketch=0;html=1;pointerEvents=1;dashed=0;fillColor=#036897;strokeColor=#ffffff;strokeWidth=2;verticalLabelPosition=bottom;verticalAlign=top;align=center;outlineConnect=0;" parent="1" vertex="1">
          <mxGeometry x="1440" y="100" width="101" height="50" as="geometry" />
        </mxCell>
        <mxCell id="wjn0DkEPhm9HMvxcZybD-30" style="edgeStyle=orthogonalEdgeStyle;rounded=0;orthogonalLoop=1;jettySize=auto;html=1;entryX=0.98;entryY=0.5;entryDx=0;entryDy=0;entryPerimeter=0;" parent="1" source="D4x98raayPRGnfYNlxmL-15" target="wjn0DkEPhm9HMvxcZybD-25" edge="1">
          <mxGeometry relative="1" as="geometry" />
        </mxCell>
        <mxCell id="wjn0DkEPhm9HMvxcZybD-31" style="edgeStyle=orthogonalEdgeStyle;rounded=0;orthogonalLoop=1;jettySize=auto;html=1;entryX=0.98;entryY=0.5;entryDx=0;entryDy=0;entryPerimeter=0;" parent="1" source="D4x98raayPRGnfYNlxmL-16" target="wjn0DkEPhm9HMvxcZybD-26" edge="1">
          <mxGeometry relative="1" as="geometry" />
        </mxCell>
        <mxCell id="wjn0DkEPhm9HMvxcZybD-37" style="edgeStyle=orthogonalEdgeStyle;rounded=0;orthogonalLoop=1;jettySize=auto;html=1;entryX=1;entryY=0;entryDx=0;entryDy=0;entryPerimeter=0;" parent="1" source="wjn0DkEPhm9HMvxcZybD-22" target="BXiqwRlGKzKQuI-ZINDh-93" edge="1">
          <mxGeometry relative="1" as="geometry">
            <Array as="points">
              <mxPoint x="1400" y="-258" />
              <mxPoint x="1400" y="-120" />
              <mxPoint x="875" y="-120" />
            </Array>
          </mxGeometry>
        </mxCell>
        <mxCell id="wjn0DkEPhm9HMvxcZybD-38" value="OPTIONAL:&lt;div&gt;Wireless Lan&lt;/div&gt;" style="text;html=1;align=center;verticalAlign=middle;whiteSpace=wrap;rounded=0;" parent="1" vertex="1">
          <mxGeometry x="1181" y="-86" width="169" height="30" as="geometry" />
        </mxCell>
      </root>
    </mxGraphModel>
  </diagram>
</mxfile>
